  0
SECTION
  2
HEADER
  9
$ACADVER
  1
AC1009
  9
$EXTMIN
 10
0.0
 20
0.0
 30
0.0
  9
$EXTMAX
 10
1000.0
 20
1000.0
 30
0.0
  9
$FILLMODE
 70
 0
  9
$SPLFRAME
 70
 1
  0
ENDSEC
  0
SECTION
  2
TABLES
  0
TABLE
  2
LAYER
 70
1
  0
LAYER
  2
0
 70
     0
 62
     7
  6
CONTINUOUS
  0
ENDTAB
  0
ENDSEC
  0
SECTION
  2
ENTITIES
  0
LINE
  8
0
 62
     0
 10
242.758
 20
117.155
 30
0.0
 11
242.992
 21
117.147
 31
0.0
  0
LINE
  8
0
 62
     0
 10
242.992
 20
117.147
 30
0.0
 11
243.227
 21
117.119
 31
0.0
  0
LINE
  8
0
 62
     0
 10
243.227
 20
117.119
 30
0.0
 11
243.458
 21
117.074
 31
0.0
  0
LINE
  8
0
 62
     0
 10
243.458
 20
117.074
 30
0.0
 11
243.685
 21
117.009
 31
0.0
  0
LINE
  8
0
 62
     0
 10
243.685
 20
117.009
 30
0.0
 11
243.906
 21
116.928
 31
0.0
  0
LINE
  8
0
 62
     0
 10
243.906
 20
116.928
 30
0.0
 11
244.119
 21
116.83
 31
0.0
  0
LINE
  8
0
 62
     0
 10
244.119
 20
116.83
 30
0.0
 11
244.325
 21
116.713
 31
0.0
  0
LINE
  8
0
 62
     0
 10
244.325
 20
116.713
 30
0.0
 11
244.521
 21
116.584
 31
0.0
  0
LINE
  8
0
 62
     0
 10
244.521
 20
116.584
 30
0.0
 11
244.705
 21
116.437
 31
0.0
  0
LINE
  8
0
 62
     0
 10
244.705
 20
116.437
 30
0.0
 11
244.879
 21
116.277
 31
0.0
  0
LINE
  8
0
 62
     0
 10
244.879
 20
116.277
 30
0.0
 11
245.039
 21
116.105
 31
0.0
  0
LINE
  8
0
 62
     0
 10
245.039
 20
116.105
 30
0.0
 11
245.185
 21
115.919
 31
0.0
  0
LINE
  8
0
 62
     0
 10
245.185
 20
115.919
 30
0.0
 11
245.316
 21
115.723
 31
0.0
  0
LINE
  8
0
 62
     0
 10
245.316
 20
115.723
 30
0.0
 11
245.431
 21
115.518
 31
0.0
  0
LINE
  8
0
 62
     0
 10
245.431
 20
115.518
 30
0.0
 11
245.529
 21
115.305
 31
0.0
  0
LINE
  8
0
 62
     0
 10
245.529
 20
115.305
 30
0.0
 11
245.611
 21
115.084
 31
0.0
  0
LINE
  8
0
 62
     0
 10
245.611
 20
115.084
 30
0.0
 11
245.675
 21
114.857
 31
0.0
  0
LINE
  8
0
 62
     0
 10
245.675
 20
114.857
 30
0.0
 11
245.721
 21
114.625
 31
0.0
  0
LINE
  8
0
 62
     0
 10
245.721
 20
114.625
 30
0.0
 11
245.748
 21
114.391
 31
0.0
  0
LINE
  8
0
 62
     0
 10
245.748
 20
114.391
 30
0.0
 11
245.758
 21
114.155
 31
0.0
  0
LINE
  8
0
 62
     0
 10
245.758
 20
114.155
 30
0.0
 11
245.758
 21
3.07992
 31
0.0
  0
LINE
  8
0
 62
     0
 10
245.758
 20
3.07992
 30
0.0
 11
245.748
 21
2.84427
 31
0.0
  0
LINE
  8
0
 62
     0
 10
245.748
 20
2.84427
 30
0.0
 11
245.721
 21
2.61001
 31
0.0
  0
LINE
  8
0
 62
     0
 10
245.721
 20
2.61001
 30
0.0
 11
245.675
 21
2.37987
 31
0.0
  0
LINE
  8
0
 62
     0
 10
245.675
 20
2.37987
 30
0.0
 11
245.611
 21
2.15249
 31
0.0
  0
LINE
  8
0
 62
     0
 10
245.611
 20
2.15249
 30
0.0
 11
245.529
 21
1.93201
 31
0.0
  0
LINE
  8
0
 62
     0
 10
245.529
 20
1.93201
 30
0.0
 11
245.431
 21
1.71841
 31
0.0
  0
LINE
  8
0
 62
     0
 10
245.431
 20
1.71841
 30
0.0
 11
245.316
 21
1.51309
 31
0.0
  0
LINE
  8
0
 62
     0
 10
245.316
 20
1.51309
 30
0.0
 11
245.185
 21
1.31603
 31
0.0
  0
LINE
  8
0
 62
     0
 10
245.185
 20
1.31603
 30
0.0
 11
245.039
 21
1.13137
 31
0.0
  0
LINE
  8
0
 62
     0
 10
245.039
 20
1.13137
 30
0.0
 11
244.879
 21
0.959115
 31
0.0
  0
LINE
  8
0
 62
     0
 10
244.879
 20
0.959115
 30
0.0
 11
244.705
 21
0.799264
 31
0.0
  0
LINE
  8
0
 62
     0
 10
244.705
 20
0.799264
 30
0.0
 11
244.521
 21
0.653189
 31
0.0
  0
LINE
  8
0
 62
     0
 10
244.521
 20
0.653189
 30
0.0
 11
244.325
 21
0.522277
 31
0.0
  0
LINE
  8
0
 62
     0
 10
244.325
 20
0.522277
 30
0.0
 11
244.119
 21
0.40652
 31
0.0
  0
LINE
  8
0
 62
     0
 10
244.119
 20
0.40652
 30
0.0
 11
243.906
 21
0.308681
 31
0.0
  0
LINE
  8
0
 62
     0
 10
243.906
 20
0.308681
 30
0.0
 11
243.685
 21
0.225998
 31
0.0
  0
LINE
  8
0
 62
     0
 10
243.685
 20
0.225998
 30
0.0
 11
243.458
 21
0.162609
 31
0.0
  0
LINE
  8
0
 62
     0
 10
243.458
 20
0.162609
 30
0.0
 11
243.227
 21
0.117133
 31
0.0
  0
LINE
  8
0
 62
     0
 10
243.227
 20
0.117133
 30
0.0
 11
242.992
 21
0.0895724
 31
0.0
  0
LINE
  8
0
 62
     0
 10
242.992
 20
0.0895724
 30
0.0
 11
242.758
 21
0.0799264
 31
0.0
  0
LINE
  8
0
 62
     0
 10
242.758
 20
0.0799264
 30
0.0
 11
3.09507
 21
0.0799264
 31
0.0
  0
LINE
  8
0
 62
     0
 10
3.09507
 20
0.0799264
 30
0.0
 11
2.85943
 21
0.0895724
 31
0.0
  0
LINE
  8
0
 62
     0
 10
2.85943
 20
0.0895724
 30
0.0
 11
2.62516
 21
0.117133
 31
0.0
  0
LINE
  8
0
 62
     0
 10
2.62516
 20
0.117133
 30
0.0
 11
2.39365
 21
0.162609
 31
0.0
  0
LINE
  8
0
 62
     0
 10
2.39365
 20
0.162609
 30
0.0
 11
2.16628
 21
0.225998
 31
0.0
  0
LINE
  8
0
 62
     0
 10
2.16628
 20
0.225998
 30
0.0
 11
1.94579
 21
0.308681
 31
0.0
  0
LINE
  8
0
 62
     0
 10
1.94579
 20
0.308681
 30
0.0
 11
1.7322
 21
0.40652
 31
0.0
  0
LINE
  8
0
 62
     0
 10
1.7322
 20
0.40652
 30
0.0
 11
1.52687
 21
0.522277
 31
0.0
  0
LINE
  8
0
 62
     0
 10
1.52687
 20
0.522277
 30
0.0
 11
1.33119
 21
0.653189
 31
0.0
  0
LINE
  8
0
 62
     0
 10
1.33119
 20
0.653189
 30
0.0
 11
1.14515
 21
0.799264
 31
0.0
  0
LINE
  8
0
 62
     0
 10
1.14515
 20
0.799264
 30
0.0
 11
0.972894
 21
0.959115
 31
0.0
  0
LINE
  8
0
 62
     0
 10
0.972894
 20
0.959115
 30
0.0
 11
0.813043
 21
1.13137
 31
0.0
  0
LINE
  8
0
 62
     0
 10
0.813043
 20
1.13137
 30
0.0
 11
0.666972
 21
1.31603
 31
0.0
  0
LINE
  8
0
 62
     0
 10
0.666972
 20
1.31603
 30
0.0
 11
0.537436
 21
1.51309
 31
0.0
  0
LINE
  8
0
 62
     0
 10
0.537436
 20
1.51309
 30
0.0
 11
0.420303
 21
1.71841
 31
0.0
  0
LINE
  8
0
 62
     0
 10
0.420303
 20
1.71841
 30
0.0
 11
0.322461
 21
1.93201
 31
0.0
  0
LINE
  8
0
 62
     0
 10
0.322461
 20
1.93201
 30
0.0
 11
0.241157
 21
2.15249
 31
0.0
  0
LINE
  8
0
 62
     0
 10
0.241157
 20
2.15249
 30
0.0
 11
0.176389
 21
2.37987
 31
0.0
  0
LINE
  8
0
 62
     0
 10
0.176389
 20
2.37987
 30
0.0
 11
0.130914
 21
2.61001
 31
0.0
  0
LINE
  8
0
 62
     0
 10
0.130914
 20
2.61001
 30
0.0
 11
0.103353
 21
2.84427
 31
0.0
  0
LINE
  8
0
 62
     0
 10
0.103353
 20
2.84427
 30
0.0
 11
0.0937066
 21
3.07992
 31
0.0
  0
LINE
  8
0
 62
     0
 10
0.0937066
 20
3.07992
 30
0.0
 11
0.0950846
 21
114.155
 31
0.0
  0
LINE
  8
0
 62
     0
 10
0.0950846
 20
114.155
 30
0.0
 11
0.103353
 21
114.391
 31
0.0
  0
LINE
  8
0
 62
     0
 10
0.103353
 20
114.391
 30
0.0
 11
0.130914
 21
114.625
 31
0.0
  0
LINE
  8
0
 62
     0
 10
0.130914
 20
114.625
 30
0.0
 11
0.176389
 21
114.857
 31
0.0
  0
LINE
  8
0
 62
     0
 10
0.176389
 20
114.857
 30
0.0
 11
0.241157
 21
115.084
 31
0.0
  0
LINE
  8
0
 62
     0
 10
0.241157
 20
115.084
 30
0.0
 11
0.322461
 21
115.305
 31
0.0
  0
LINE
  8
0
 62
     0
 10
0.322461
 20
115.305
 30
0.0
 11
0.420303
 21
115.518
 31
0.0
  0
LINE
  8
0
 62
     0
 10
0.420303
 20
115.518
 30
0.0
 11
0.537436
 21
115.723
 31
0.0
  0
LINE
  8
0
 62
     0
 10
0.537436
 20
115.723
 30
0.0
 11
0.666972
 21
115.919
 31
0.0
  0
LINE
  8
0
 62
     0
 10
0.666972
 20
115.919
 30
0.0
 11
0.813043
 21
116.105
 31
0.0
  0
LINE
  8
0
 62
     0
 10
0.813043
 20
116.105
 30
0.0
 11
0.972894
 21
116.277
 31
0.0
  0
LINE
  8
0
 62
     0
 10
0.972894
 20
116.277
 30
0.0
 11
1.14515
 21
116.437
 31
0.0
  0
LINE
  8
0
 62
     0
 10
1.14515
 20
116.437
 30
0.0
 11
1.33119
 21
116.584
 31
0.0
  0
LINE
  8
0
 62
     0
 10
1.33119
 20
116.584
 30
0.0
 11
1.52687
 21
116.713
 31
0.0
  0
LINE
  8
0
 62
     0
 10
1.52687
 20
116.713
 30
0.0
 11
1.7322
 21
116.83
 31
0.0
  0
LINE
  8
0
 62
     0
 10
1.7322
 20
116.83
 30
0.0
 11
1.94579
 21
116.928
 31
0.0
  0
LINE
  8
0
 62
     0
 10
1.94579
 20
116.928
 30
0.0
 11
2.16628
 21
117.009
 31
0.0
  0
LINE
  8
0
 62
     0
 10
2.16628
 20
117.009
 30
0.0
 11
2.39365
 21
117.074
 31
0.0
  0
LINE
  8
0
 62
     0
 10
2.39365
 20
117.074
 30
0.0
 11
2.62516
 21
117.119
 31
0.0
  0
LINE
  8
0
 62
     0
 10
2.62516
 20
117.119
 30
0.0
 11
2.85943
 21
117.147
 31
0.0
  0
LINE
  8
0
 62
     0
 10
2.85943
 20
117.147
 30
0.0
 11
3.09507
 21
117.157
 31
0.0
  0
LINE
  8
0
 62
     0
 10
3.09507
 20
117.157
 30
0.0
 11
242.758
 21
117.155
 31
0.0
  0
LINE
  8
0
 62
     0
 10
242.768
 20
3.77719
 30
0.0
 11
242.46
 21
3.6201
 31
0.0
  0
LINE
  8
0
 62
     0
 10
242.46
 20
3.6201
 30
0.0
 11
242.218
 21
3.37619
 31
0.0
  0
LINE
  8
0
 62
     0
 10
242.218
 20
3.37619
 30
0.0
 11
242.062
 21
3.07027
 31
0.0
  0
LINE
  8
0
 62
     0
 10
242.062
 20
3.07027
 30
0.0
 11
242.008
 21
2.72989
 31
0.0
  0
LINE
  8
0
 62
     0
 10
242.008
 20
2.72989
 30
0.0
 11
242.062
 21
2.39089
 31
0.0
  0
LINE
  8
0
 62
     0
 10
242.062
 20
2.39089
 30
0.0
 11
242.218
 21
2.08359
 31
0.0
  0
LINE
  8
0
 62
     0
 10
242.218
 20
2.08359
 30
0.0
 11
242.46
 21
1.84106
 31
0.0
  0
LINE
  8
0
 62
     0
 10
242.46
 20
1.84106
 30
0.0
 11
242.768
 21
1.68396
 31
0.0
  0
LINE
  8
0
 62
     0
 10
242.768
 20
1.68396
 30
0.0
 11
243.108
 21
1.63022
 31
0.0
  0
LINE
  8
0
 62
     0
 10
243.108
 20
1.63022
 30
0.0
 11
243.448
 21
1.68396
 31
0.0
  0
LINE
  8
0
 62
     0
 10
243.448
 20
1.68396
 30
0.0
 11
243.754
 21
1.84106
 31
0.0
  0
LINE
  8
0
 62
     0
 10
243.754
 20
1.84106
 30
0.0
 11
243.998
 21
2.08359
 31
0.0
  0
LINE
  8
0
 62
     0
 10
243.998
 20
2.08359
 30
0.0
 11
244.154
 21
2.39089
 31
0.0
  0
LINE
  8
0
 62
     0
 10
244.154
 20
2.39089
 30
0.0
 11
244.208
 21
2.72989
 31
0.0
  0
LINE
  8
0
 62
     0
 10
244.208
 20
2.72989
 30
0.0
 11
244.154
 21
3.07027
 31
0.0
  0
LINE
  8
0
 62
     0
 10
244.154
 20
3.07027
 30
0.0
 11
243.998
 21
3.37619
 31
0.0
  0
LINE
  8
0
 62
     0
 10
243.998
 20
3.37619
 30
0.0
 11
243.754
 21
3.6201
 31
0.0
  0
LINE
  8
0
 62
     0
 10
243.754
 20
3.6201
 30
0.0
 11
243.448
 21
3.77719
 31
0.0
  0
LINE
  8
0
 62
     0
 10
243.448
 20
3.77719
 30
0.0
 11
243.108
 21
3.82958
 31
0.0
  0
LINE
  8
0
 62
     0
 10
243.108
 20
3.82958
 30
0.0
 11
242.768
 21
3.77719
 31
0.0
  0
LINE
  8
0
 62
     0
 10
162.647
 20
3.77719
 30
0.0
 11
162.34
 21
3.6201
 31
0.0
  0
LINE
  8
0
 62
     0
 10
162.34
 20
3.6201
 30
0.0
 11
162.097
 21
3.37619
 31
0.0
  0
LINE
  8
0
 62
     0
 10
162.097
 20
3.37619
 30
0.0
 11
161.94
 21
3.07027
 31
0.0
  0
LINE
  8
0
 62
     0
 10
161.94
 20
3.07027
 30
0.0
 11
161.887
 21
2.72989
 31
0.0
  0
LINE
  8
0
 62
     0
 10
161.887
 20
2.72989
 30
0.0
 11
161.94
 21
2.39089
 31
0.0
  0
LINE
  8
0
 62
     0
 10
161.94
 20
2.39089
 30
0.0
 11
162.097
 21
2.08359
 31
0.0
  0
LINE
  8
0
 62
     0
 10
162.097
 20
2.08359
 30
0.0
 11
162.34
 21
1.84106
 31
0.0
  0
LINE
  8
0
 62
     0
 10
162.34
 20
1.84106
 30
0.0
 11
162.647
 21
1.68396
 31
0.0
  0
LINE
  8
0
 62
     0
 10
162.647
 20
1.68396
 30
0.0
 11
162.986
 21
1.63022
 31
0.0
  0
LINE
  8
0
 62
     0
 10
162.986
 20
1.63022
 30
0.0
 11
163.327
 21
1.68396
 31
0.0
  0
LINE
  8
0
 62
     0
 10
163.327
 20
1.68396
 30
0.0
 11
163.632
 21
1.84106
 31
0.0
  0
LINE
  8
0
 62
     0
 10
163.632
 20
1.84106
 30
0.0
 11
163.876
 21
2.08359
 31
0.0
  0
LINE
  8
0
 62
     0
 10
163.876
 20
2.08359
 30
0.0
 11
164.034
 21
2.39089
 31
0.0
  0
LINE
  8
0
 62
     0
 10
164.034
 20
2.39089
 30
0.0
 11
164.087
 21
2.72989
 31
0.0
  0
LINE
  8
0
 62
     0
 10
164.087
 20
2.72989
 30
0.0
 11
164.034
 21
3.07027
 31
0.0
  0
LINE
  8
0
 62
     0
 10
164.034
 20
3.07027
 30
0.0
 11
163.876
 21
3.37619
 31
0.0
  0
LINE
  8
0
 62
     0
 10
163.876
 20
3.37619
 30
0.0
 11
163.632
 21
3.6201
 31
0.0
  0
LINE
  8
0
 62
     0
 10
163.632
 20
3.6201
 30
0.0
 11
163.327
 21
3.77719
 31
0.0
  0
LINE
  8
0
 62
     0
 10
163.327
 20
3.77719
 30
0.0
 11
162.986
 21
3.82958
 31
0.0
  0
LINE
  8
0
 62
     0
 10
162.986
 20
3.82958
 30
0.0
 11
162.647
 21
3.77719
 31
0.0
  0
LINE
  8
0
 62
     0
 10
82.5253
 20
3.77719
 30
0.0
 11
82.2194
 21
3.6201
 31
0.0
  0
LINE
  8
0
 62
     0
 10
82.2194
 20
3.6201
 30
0.0
 11
81.9753
 21
3.37619
 31
0.0
  0
LINE
  8
0
 62
     0
 10
81.9753
 20
3.37619
 30
0.0
 11
81.8197
 21
3.07027
 31
0.0
  0
LINE
  8
0
 62
     0
 10
81.8197
 20
3.07027
 30
0.0
 11
81.7658
 21
2.72989
 31
0.0
  0
LINE
  8
0
 62
     0
 10
81.7658
 20
2.72989
 30
0.0
 11
81.8197
 21
2.39089
 31
0.0
  0
LINE
  8
0
 62
     0
 10
81.8197
 20
2.39089
 30
0.0
 11
81.9753
 21
2.08359
 31
0.0
  0
LINE
  8
0
 62
     0
 10
81.9753
 20
2.08359
 30
0.0
 11
82.2194
 21
1.84106
 31
0.0
  0
LINE
  8
0
 62
     0
 10
82.2194
 20
1.84106
 30
0.0
 11
82.5253
 21
1.68396
 31
0.0
  0
LINE
  8
0
 62
     0
 10
82.5253
 20
1.68396
 30
0.0
 11
82.8657
 21
1.63022
 31
0.0
  0
LINE
  8
0
 62
     0
 10
82.8657
 20
1.63022
 30
0.0
 11
83.2058
 21
1.68396
 31
0.0
  0
LINE
  8
0
 62
     0
 10
83.2058
 20
1.68396
 30
0.0
 11
83.512
 21
1.84106
 31
0.0
  0
LINE
  8
0
 62
     0
 10
83.512
 20
1.84106
 30
0.0
 11
83.7558
 21
2.08359
 31
0.0
  0
LINE
  8
0
 62
     0
 10
83.7558
 20
2.08359
 30
0.0
 11
83.9114
 21
2.39089
 31
0.0
  0
LINE
  8
0
 62
     0
 10
83.9114
 20
2.39089
 30
0.0
 11
83.9653
 21
2.72989
 31
0.0
  0
LINE
  8
0
 62
     0
 10
83.9653
 20
2.72989
 30
0.0
 11
83.9114
 21
3.07027
 31
0.0
  0
LINE
  8
0
 62
     0
 10
83.9114
 20
3.07027
 30
0.0
 11
83.7558
 21
3.37619
 31
0.0
  0
LINE
  8
0
 62
     0
 10
83.7558
 20
3.37619
 30
0.0
 11
83.512
 21
3.6201
 31
0.0
  0
LINE
  8
0
 62
     0
 10
83.512
 20
3.6201
 30
0.0
 11
83.2058
 21
3.77719
 31
0.0
  0
LINE
  8
0
 62
     0
 10
83.2058
 20
3.77719
 30
0.0
 11
82.8657
 21
3.82958
 31
0.0
  0
LINE
  8
0
 62
     0
 10
82.8657
 20
3.82958
 30
0.0
 11
82.5253
 21
3.77719
 31
0.0
  0
LINE
  8
0
 62
     0
 10
2.40468
 20
3.77719
 30
0.0
 11
2.09737
 21
3.6201
 31
0.0
  0
LINE
  8
0
 62
     0
 10
2.09737
 20
3.6201
 30
0.0
 11
1.85484
 21
3.37619
 31
0.0
  0
LINE
  8
0
 62
     0
 10
1.85484
 20
3.37619
 30
0.0
 11
1.69774
 21
3.07027
 31
0.0
  0
LINE
  8
0
 62
     0
 10
1.69774
 20
3.07027
 30
0.0
 11
1.64538
 21
2.72989
 31
0.0
  0
LINE
  8
0
 62
     0
 10
1.64538
 20
2.72989
 30
0.0
 11
1.69774
 21
2.39089
 31
0.0
  0
LINE
  8
0
 62
     0
 10
1.69774
 20
2.39089
 30
0.0
 11
1.85484
 21
2.08359
 31
0.0
  0
LINE
  8
0
 62
     0
 10
1.85484
 20
2.08359
 30
0.0
 11
2.09737
 21
1.84106
 31
0.0
  0
LINE
  8
0
 62
     0
 10
2.09737
 20
1.84106
 30
0.0
 11
2.40468
 21
1.68396
 31
0.0
  0
LINE
  8
0
 62
     0
 10
2.40468
 20
1.68396
 30
0.0
 11
2.74505
 21
1.63022
 31
0.0
  0
LINE
  8
0
 62
     0
 10
2.74505
 20
1.63022
 30
0.0
 11
3.08405
 21
1.68396
 31
0.0
  0
LINE
  8
0
 62
     0
 10
3.08405
 20
1.68396
 30
0.0
 11
3.39135
 21
1.84106
 31
0.0
  0
LINE
  8
0
 62
     0
 10
3.39135
 20
1.84106
 30
0.0
 11
3.63389
 21
2.08359
 31
0.0
  0
LINE
  8
0
 62
     0
 10
3.63389
 20
2.08359
 30
0.0
 11
3.79099
 21
2.39089
 31
0.0
  0
LINE
  8
0
 62
     0
 10
3.79099
 20
2.39089
 30
0.0
 11
3.84471
 21
2.72989
 31
0.0
  0
LINE
  8
0
 62
     0
 10
3.84471
 20
2.72989
 30
0.0
 11
3.79099
 21
3.07027
 31
0.0
  0
LINE
  8
0
 62
     0
 10
3.79099
 20
3.07027
 30
0.0
 11
3.63389
 21
3.37619
 31
0.0
  0
LINE
  8
0
 62
     0
 10
3.63389
 20
3.37619
 30
0.0
 11
3.39135
 21
3.6201
 31
0.0
  0
LINE
  8
0
 62
     0
 10
3.39135
 20
3.6201
 30
0.0
 11
3.08405
 21
3.77719
 31
0.0
  0
LINE
  8
0
 62
     0
 10
3.08405
 20
3.77719
 30
0.0
 11
2.74505
 21
3.82958
 31
0.0
  0
LINE
  8
0
 62
     0
 10
2.74505
 20
3.82958
 30
0.0
 11
2.40468
 21
3.77719
 31
0.0
  0
LINE
  8
0
 62
     0
 10
82.5253
 20
115.553
 30
0.0
 11
82.2194
 21
115.395
 31
0.0
  0
LINE
  8
0
 62
     0
 10
82.2194
 20
115.395
 30
0.0
 11
81.9753
 21
115.153
 31
0.0
  0
LINE
  8
0
 62
     0
 10
81.9753
 20
115.153
 30
0.0
 11
81.8197
 21
114.846
 31
0.0
  0
LINE
  8
0
 62
     0
 10
81.8197
 20
114.846
 30
0.0
 11
81.7658
 21
114.505
 31
0.0
  0
LINE
  8
0
 62
     0
 10
81.7658
 20
114.505
 30
0.0
 11
81.8197
 21
114.166
 31
0.0
  0
LINE
  8
0
 62
     0
 10
81.8197
 20
114.166
 30
0.0
 11
81.9753
 21
113.859
 31
0.0
  0
LINE
  8
0
 62
     0
 10
81.9753
 20
113.859
 30
0.0
 11
82.2194
 21
113.617
 31
0.0
  0
LINE
  8
0
 62
     0
 10
82.2194
 20
113.617
 30
0.0
 11
82.5253
 21
113.459
 31
0.0
  0
LINE
  8
0
 62
     0
 10
82.5253
 20
113.459
 30
0.0
 11
82.8657
 21
113.406
 31
0.0
  0
LINE
  8
0
 62
     0
 10
82.8657
 20
113.406
 30
0.0
 11
83.2058
 21
113.459
 31
0.0
  0
LINE
  8
0
 62
     0
 10
83.2058
 20
113.459
 30
0.0
 11
83.512
 21
113.617
 31
0.0
  0
LINE
  8
0
 62
     0
 10
83.512
 20
113.617
 30
0.0
 11
83.7558
 21
113.859
 31
0.0
  0
LINE
  8
0
 62
     0
 10
83.7558
 20
113.859
 30
0.0
 11
83.9114
 21
114.166
 31
0.0
  0
LINE
  8
0
 62
     0
 10
83.9114
 20
114.166
 30
0.0
 11
83.9653
 21
114.505
 31
0.0
  0
LINE
  8
0
 62
     0
 10
83.9653
 20
114.505
 30
0.0
 11
83.9114
 21
114.846
 31
0.0
  0
LINE
  8
0
 62
     0
 10
83.9114
 20
114.846
 30
0.0
 11
83.7558
 21
115.153
 31
0.0
  0
LINE
  8
0
 62
     0
 10
83.7558
 20
115.153
 30
0.0
 11
83.512
 21
115.395
 31
0.0
  0
LINE
  8
0
 62
     0
 10
83.512
 20
115.395
 30
0.0
 11
83.2058
 21
115.553
 31
0.0
  0
LINE
  8
0
 62
     0
 10
83.2058
 20
115.553
 30
0.0
 11
82.8657
 21
115.605
 31
0.0
  0
LINE
  8
0
 62
     0
 10
82.8657
 20
115.605
 30
0.0
 11
82.5253
 21
115.553
 31
0.0
  0
LINE
  8
0
 62
     0
 10
162.647
 20
115.553
 30
0.0
 11
162.34
 21
115.395
 31
0.0
  0
LINE
  8
0
 62
     0
 10
162.34
 20
115.395
 30
0.0
 11
162.097
 21
115.153
 31
0.0
  0
LINE
  8
0
 62
     0
 10
162.097
 20
115.153
 30
0.0
 11
161.94
 21
114.846
 31
0.0
  0
LINE
  8
0
 62
     0
 10
161.94
 20
114.846
 30
0.0
 11
161.887
 21
114.505
 31
0.0
  0
LINE
  8
0
 62
     0
 10
161.887
 20
114.505
 30
0.0
 11
161.94
 21
114.166
 31
0.0
  0
LINE
  8
0
 62
     0
 10
161.94
 20
114.166
 30
0.0
 11
162.097
 21
113.859
 31
0.0
  0
LINE
  8
0
 62
     0
 10
162.097
 20
113.859
 30
0.0
 11
162.34
 21
113.617
 31
0.0
  0
LINE
  8
0
 62
     0
 10
162.34
 20
113.617
 30
0.0
 11
162.647
 21
113.459
 31
0.0
  0
LINE
  8
0
 62
     0
 10
162.647
 20
113.459
 30
0.0
 11
162.986
 21
113.406
 31
0.0
  0
LINE
  8
0
 62
     0
 10
162.986
 20
113.406
 30
0.0
 11
163.327
 21
113.459
 31
0.0
  0
LINE
  8
0
 62
     0
 10
163.327
 20
113.459
 30
0.0
 11
163.632
 21
113.617
 31
0.0
  0
LINE
  8
0
 62
     0
 10
163.632
 20
113.617
 30
0.0
 11
163.876
 21
113.859
 31
0.0
  0
LINE
  8
0
 62
     0
 10
163.876
 20
113.859
 30
0.0
 11
164.034
 21
114.166
 31
0.0
  0
LINE
  8
0
 62
     0
 10
164.034
 20
114.166
 30
0.0
 11
164.087
 21
114.505
 31
0.0
  0
LINE
  8
0
 62
     0
 10
164.087
 20
114.505
 30
0.0
 11
164.034
 21
114.846
 31
0.0
  0
LINE
  8
0
 62
     0
 10
164.034
 20
114.846
 30
0.0
 11
163.876
 21
115.153
 31
0.0
  0
LINE
  8
0
 62
     0
 10
163.876
 20
115.153
 30
0.0
 11
163.632
 21
115.395
 31
0.0
  0
LINE
  8
0
 62
     0
 10
163.632
 20
115.395
 30
0.0
 11
163.327
 21
115.553
 31
0.0
  0
LINE
  8
0
 62
     0
 10
163.327
 20
115.553
 30
0.0
 11
162.986
 21
115.605
 31
0.0
  0
LINE
  8
0
 62
     0
 10
162.986
 20
115.605
 30
0.0
 11
162.647
 21
115.553
 31
0.0
  0
LINE
  8
0
 62
     0
 10
242.768
 20
115.553
 30
0.0
 11
242.46
 21
115.395
 31
0.0
  0
LINE
  8
0
 62
     0
 10
242.46
 20
115.395
 30
0.0
 11
242.218
 21
115.153
 31
0.0
  0
LINE
  8
0
 62
     0
 10
242.218
 20
115.153
 30
0.0
 11
242.062
 21
114.846
 31
0.0
  0
LINE
  8
0
 62
     0
 10
242.062
 20
114.846
 30
0.0
 11
242.008
 21
114.505
 31
0.0
  0
LINE
  8
0
 62
     0
 10
242.008
 20
114.505
 30
0.0
 11
242.062
 21
114.166
 31
0.0
  0
LINE
  8
0
 62
     0
 10
242.062
 20
114.166
 30
0.0
 11
242.218
 21
113.859
 31
0.0
  0
LINE
  8
0
 62
     0
 10
242.218
 20
113.859
 30
0.0
 11
242.46
 21
113.617
 31
0.0
  0
LINE
  8
0
 62
     0
 10
242.46
 20
113.617
 30
0.0
 11
242.768
 21
113.459
 31
0.0
  0
LINE
  8
0
 62
     0
 10
242.768
 20
113.459
 30
0.0
 11
243.108
 21
113.406
 31
0.0
  0
LINE
  8
0
 62
     0
 10
243.108
 20
113.406
 30
0.0
 11
243.448
 21
113.459
 31
0.0
  0
LINE
  8
0
 62
     0
 10
243.448
 20
113.459
 30
0.0
 11
243.754
 21
113.617
 31
0.0
  0
LINE
  8
0
 62
     0
 10
243.754
 20
113.617
 30
0.0
 11
243.998
 21
113.859
 31
0.0
  0
LINE
  8
0
 62
     0
 10
243.998
 20
113.859
 30
0.0
 11
244.154
 21
114.166
 31
0.0
  0
LINE
  8
0
 62
     0
 10
244.154
 20
114.166
 30
0.0
 11
244.208
 21
114.505
 31
0.0
  0
LINE
  8
0
 62
     0
 10
244.208
 20
114.505
 30
0.0
 11
244.154
 21
114.846
 31
0.0
  0
LINE
  8
0
 62
     0
 10
244.154
 20
114.846
 30
0.0
 11
243.998
 21
115.153
 31
0.0
  0
LINE
  8
0
 62
     0
 10
243.998
 20
115.153
 30
0.0
 11
243.754
 21
115.395
 31
0.0
  0
LINE
  8
0
 62
     0
 10
243.754
 20
115.395
 30
0.0
 11
243.448
 21
115.553
 31
0.0
  0
LINE
  8
0
 62
     0
 10
243.448
 20
115.553
 30
0.0
 11
243.108
 21
115.605
 31
0.0
  0
LINE
  8
0
 62
     0
 10
243.108
 20
115.605
 30
0.0
 11
242.768
 21
115.553
 31
0.0
  0
LINE
  8
0
 62
     0
 10
2.40468
 20
115.553
 30
0.0
 11
2.09737
 21
115.395
 31
0.0
  0
LINE
  8
0
 62
     0
 10
2.09737
 20
115.395
 30
0.0
 11
1.85484
 21
115.153
 31
0.0
  0
LINE
  8
0
 62
     0
 10
1.85484
 20
115.153
 30
0.0
 11
1.69774
 21
114.846
 31
0.0
  0
LINE
  8
0
 62
     0
 10
1.69774
 20
114.846
 30
0.0
 11
1.64538
 21
114.505
 31
0.0
  0
LINE
  8
0
 62
     0
 10
1.64538
 20
114.505
 30
0.0
 11
1.69774
 21
114.166
 31
0.0
  0
LINE
  8
0
 62
     0
 10
1.69774
 20
114.166
 30
0.0
 11
1.85484
 21
113.859
 31
0.0
  0
LINE
  8
0
 62
     0
 10
1.85484
 20
113.859
 30
0.0
 11
2.09737
 21
113.617
 31
0.0
  0
LINE
  8
0
 62
     0
 10
2.09737
 20
113.617
 30
0.0
 11
2.40468
 21
113.459
 31
0.0
  0
LINE
  8
0
 62
     0
 10
2.40468
 20
113.459
 30
0.0
 11
2.74505
 21
113.406
 31
0.0
  0
LINE
  8
0
 62
     0
 10
2.74505
 20
113.406
 30
0.0
 11
3.08405
 21
113.459
 31
0.0
  0
LINE
  8
0
 62
     0
 10
3.08405
 20
113.459
 30
0.0
 11
3.39135
 21
113.617
 31
0.0
  0
LINE
  8
0
 62
     0
 10
3.39135
 20
113.617
 30
0.0
 11
3.63389
 21
113.859
 31
0.0
  0
LINE
  8
0
 62
     0
 10
3.63389
 20
113.859
 30
0.0
 11
3.79099
 21
114.166
 31
0.0
  0
LINE
  8
0
 62
     0
 10
3.79099
 20
114.166
 30
0.0
 11
3.84471
 21
114.505
 31
0.0
  0
LINE
  8
0
 62
     0
 10
3.84471
 20
114.505
 30
0.0
 11
3.79099
 21
114.846
 31
0.0
  0
LINE
  8
0
 62
     0
 10
3.79099
 20
114.846
 30
0.0
 11
3.63389
 21
115.153
 31
0.0
  0
LINE
  8
0
 62
     0
 10
3.63389
 20
115.153
 30
0.0
 11
3.39135
 21
115.395
 31
0.0
  0
LINE
  8
0
 62
     0
 10
3.39135
 20
115.395
 30
0.0
 11
3.08405
 21
115.553
 31
0.0
  0
LINE
  8
0
 62
     0
 10
3.08405
 20
115.553
 30
0.0
 11
2.74505
 21
115.605
 31
0.0
  0
LINE
  8
0
 62
     0
 10
2.74505
 20
115.605
 30
0.0
 11
2.40468
 21
115.553
 31
0.0
  0
ENDSEC
  0
EOF
