<?xml version="1.0"?>
<!-- Generated by SVGo -->
<svg width="255.664mm" height="127.077mm"
     viewBox="0.000 0.000 255.664 127.077"
     xmlns="http://www.w3.org/2000/svg" 
     xmlns:xlink="http://www.w3.org/1999/xlink">
<polygon points="72.982,5.000 72.982,10.300 10.300,10.300 10.300,116.777 245.364,116.777 245.364,10.300 82.682,10.300 82.682,5.000 247.664,5.001 247.899,5.010 248.133,5.037 248.364,5.083 248.591,5.147 248.812,5.229 249.026,5.327 249.231,5.443 249.427,5.573 249.612,5.719 249.785,5.879 249.945,6.052 250.091,6.237 250.222,6.433 250.337,6.639 250.436,6.852 250.517,7.073 250.581,7.300 250.627,7.531 250.655,7.765 250.664,8.001 250.664,119.077 250.655,119.312 250.627,119.546 250.581,119.777 250.517,120.004 250.436,120.225 250.337,120.438 250.222,120.644 250.091,120.840 249.945,121.025 249.785,121.198 249.612,121.358 249.427,121.504 249.231,121.634 249.026,121.750 248.812,121.848 248.591,121.930 248.364,121.994 248.133,122.040 247.899,122.067 247.664,122.077 8.001,122.077 7.765,122.067 7.531,122.040 7.300,121.994 7.073,121.930 6.852,121.848 6.639,121.750 6.433,121.634 6.237,121.504 6.052,121.358 5.879,121.198 5.719,121.025 5.573,120.840 5.443,120.644 5.327,120.438 5.229,120.225 5.147,120.004 5.083,119.777 5.037,119.546 5.010,119.312 5.000,119.077 5.001,8.001 5.010,7.765 5.037,7.531 5.083,7.300 5.147,7.073 5.229,6.852 5.327,6.639 5.443,6.433 5.573,6.237 5.719,6.052 5.879,5.879 6.052,5.719 6.237,5.573 6.433,5.443 6.639,5.327 6.852,5.229 7.073,5.147 7.300,5.083 7.531,5.037 7.765,5.010 8.001,5.000" style="fill:none;stroke-width:0.050000mm;stroke:black"/>
<polygon points="247.674,118.380 247.367,118.537 247.124,118.780 246.968,119.087 246.914,119.427 246.968,119.766 247.124,120.073 247.367,120.316 247.674,120.473 248.014,120.527 248.354,120.473 248.661,120.316 248.904,120.073 249.060,119.766 249.114,119.427 249.060,119.087 248.904,118.780 248.661,118.537 248.354,118.380 248.014,118.327" style="fill:none;stroke-width:0.050000mm;stroke:black"/>
<polygon points="167.553,118.380 167.246,118.537 167.003,118.780 166.847,119.087 166.793,119.427 166.847,119.766 167.003,120.073 167.246,120.316 167.553,120.473 167.893,120.527 168.233,120.473 168.539,120.316 168.783,120.073 168.939,119.766 168.993,119.427 168.939,119.087 168.783,118.780 168.539,118.537 168.233,118.380 167.893,118.327" style="fill:none;stroke-width:0.050000mm;stroke:black"/>
<polygon points="87.432,118.380 87.125,118.537 86.882,118.780 86.726,119.087 86.672,119.427 86.726,119.766 86.882,120.073 87.125,120.316 87.432,120.473 87.772,120.527 88.112,120.473 88.418,120.316 88.662,120.073 88.818,119.766 88.872,119.427 88.818,119.087 88.662,118.780 88.418,118.537 88.112,118.380 87.772,118.327" style="fill:none;stroke-width:0.050000mm;stroke:black"/>
<polygon points="7.311,118.380 7.004,118.537 6.761,118.780 6.604,119.087 6.551,119.427 6.604,119.766 6.761,120.073 7.004,120.316 7.311,120.473 7.651,120.527 7.990,120.473 8.297,120.316 8.540,120.073 8.697,119.766 8.751,119.427 8.697,119.087 8.540,118.780 8.297,118.537 7.990,118.380 7.651,118.327" style="fill:none;stroke-width:0.050000mm;stroke:black"/>
<polygon points="87.432,6.604 87.125,6.761 86.882,7.004 86.726,7.311 86.672,7.651 86.726,7.990 86.882,8.297 87.125,8.540 87.432,8.697 87.772,8.751 88.112,8.697 88.418,8.540 88.662,8.297 88.818,7.990 88.872,7.651 88.818,7.311 88.662,7.004 88.418,6.761 88.112,6.604 87.772,6.551" style="fill:none;stroke-width:0.050000mm;stroke:black"/>
<polygon points="167.553,6.604 167.246,6.761 167.003,7.004 166.847,7.311 166.793,7.651 166.847,7.990 167.003,8.297 167.246,8.540 167.553,8.697 167.893,8.751 168.233,8.697 168.539,8.540 168.783,8.297 168.939,7.990 168.993,7.651 168.939,7.311 168.783,7.004 168.539,6.761 168.233,6.604 167.893,6.551" style="fill:none;stroke-width:0.050000mm;stroke:black"/>
<polygon points="247.674,6.604 247.367,6.761 247.124,7.004 246.968,7.311 246.914,7.651 246.968,7.990 247.124,8.297 247.367,8.540 247.674,8.697 248.014,8.751 248.354,8.697 248.661,8.540 248.904,8.297 249.060,7.990 249.114,7.651 249.060,7.311 248.904,7.004 248.661,6.761 248.354,6.604 248.014,6.551" style="fill:none;stroke-width:0.050000mm;stroke:black"/>
<polygon points="7.311,6.604 7.004,6.761 6.761,7.004 6.604,7.311 6.551,7.651 6.604,7.990 6.761,8.297 7.004,8.540 7.311,8.697 7.651,8.751 7.990,8.697 8.297,8.540 8.540,8.297 8.697,7.990 8.751,7.651 8.697,7.311 8.540,7.004 8.297,6.761 7.990,6.604 7.651,6.551" style="fill:none;stroke-width:0.050000mm;stroke:black"/>
</svg>
