  0
SECTION
  2
HEADER
  9
$ACADVER
  1
AC1009
  9
$EXTMIN
 10
0.0
 20
0.0
 30
0.0
  9
$EXTMAX
 10
1000.0
 20
1000.0
 30
0.0
  9
$FILLMODE
 70
 0
  9
$SPLFRAME
 70
 1
  0
ENDSEC
  0
SECTION
  2
TABLES
  0
TABLE
  2
LAYER
 70
1
  0
LAYER
  2
0
 70
     0
 62
     7
  6
CONTINUOUS
  0
ENDTAB
  0
ENDSEC
  0
SECTION
  2
ENTITIES
  0
LINE
  8
0
 62
     0
 10
242.758
 20
117.155
 30
0.0
 11
242.992
 21
117.147
 31
0.0
  0
LINE
  8
0
 62
     0
 10
242.992
 20
117.147
 30
0.0
 11
243.227
 21
117.119
 31
0.0
  0
LINE
  8
0
 62
     0
 10
243.227
 20
117.119
 30
0.0
 11
243.458
 21
117.074
 31
0.0
  0
LINE
  8
0
 62
     0
 10
243.458
 20
117.074
 30
0.0
 11
243.685
 21
117.009
 31
0.0
  0
LINE
  8
0
 62
     0
 10
243.685
 20
117.009
 30
0.0
 11
243.906
 21
116.928
 31
0.0
  0
LINE
  8
0
 62
     0
 10
243.906
 20
116.928
 30
0.0
 11
244.119
 21
116.83
 31
0.0
  0
LINE
  8
0
 62
     0
 10
244.119
 20
116.83
 30
0.0
 11
244.325
 21
116.713
 31
0.0
  0
LINE
  8
0
 62
     0
 10
244.325
 20
116.713
 30
0.0
 11
244.521
 21
116.584
 31
0.0
  0
LINE
  8
0
 62
     0
 10
244.521
 20
116.584
 30
0.0
 11
244.705
 21
116.437
 31
0.0
  0
LINE
  8
0
 62
     0
 10
244.705
 20
116.437
 30
0.0
 11
244.879
 21
116.277
 31
0.0
  0
LINE
  8
0
 62
     0
 10
244.879
 20
116.277
 30
0.0
 11
245.039
 21
116.105
 31
0.0
  0
LINE
  8
0
 62
     0
 10
245.039
 20
116.105
 30
0.0
 11
245.185
 21
115.919
 31
0.0
  0
LINE
  8
0
 62
     0
 10
245.185
 20
115.919
 30
0.0
 11
245.316
 21
115.723
 31
0.0
  0
LINE
  8
0
 62
     0
 10
245.316
 20
115.723
 30
0.0
 11
245.431
 21
115.518
 31
0.0
  0
LINE
  8
0
 62
     0
 10
245.431
 20
115.518
 30
0.0
 11
245.529
 21
115.305
 31
0.0
  0
LINE
  8
0
 62
     0
 10
245.529
 20
115.305
 30
0.0
 11
245.611
 21
115.084
 31
0.0
  0
LINE
  8
0
 62
     0
 10
245.611
 20
115.084
 30
0.0
 11
245.675
 21
114.857
 31
0.0
  0
LINE
  8
0
 62
     0
 10
245.675
 20
114.857
 30
0.0
 11
245.721
 21
114.625
 31
0.0
  0
LINE
  8
0
 62
     0
 10
245.721
 20
114.625
 30
0.0
 11
245.748
 21
114.391
 31
0.0
  0
LINE
  8
0
 62
     0
 10
245.748
 20
114.391
 30
0.0
 11
245.758
 21
114.155
 31
0.0
  0
LINE
  8
0
 62
     0
 10
245.758
 20
114.155
 30
0.0
 11
245.758
 21
3.07992
 31
0.0
  0
LINE
  8
0
 62
     0
 10
245.758
 20
3.07992
 30
0.0
 11
245.748
 21
2.84427
 31
0.0
  0
LINE
  8
0
 62
     0
 10
245.748
 20
2.84427
 30
0.0
 11
245.721
 21
2.61001
 31
0.0
  0
LINE
  8
0
 62
     0
 10
245.721
 20
2.61001
 30
0.0
 11
245.675
 21
2.37987
 31
0.0
  0
LINE
  8
0
 62
     0
 10
245.675
 20
2.37987
 30
0.0
 11
245.611
 21
2.15249
 31
0.0
  0
LINE
  8
0
 62
     0
 10
245.611
 20
2.15249
 30
0.0
 11
245.529
 21
1.93201
 31
0.0
  0
LINE
  8
0
 62
     0
 10
245.529
 20
1.93201
 30
0.0
 11
245.431
 21
1.71841
 31
0.0
  0
LINE
  8
0
 62
     0
 10
245.431
 20
1.71841
 30
0.0
 11
245.316
 21
1.51309
 31
0.0
  0
LINE
  8
0
 62
     0
 10
245.316
 20
1.51309
 30
0.0
 11
245.185
 21
1.31603
 31
0.0
  0
LINE
  8
0
 62
     0
 10
245.185
 20
1.31603
 30
0.0
 11
245.039
 21
1.13137
 31
0.0
  0
LINE
  8
0
 62
     0
 10
245.039
 20
1.13137
 30
0.0
 11
244.879
 21
0.959115
 31
0.0
  0
LINE
  8
0
 62
     0
 10
244.879
 20
0.959115
 30
0.0
 11
244.705
 21
0.799264
 31
0.0
  0
LINE
  8
0
 62
     0
 10
244.705
 20
0.799264
 30
0.0
 11
244.521
 21
0.653189
 31
0.0
  0
LINE
  8
0
 62
     0
 10
244.521
 20
0.653189
 30
0.0
 11
244.325
 21
0.522277
 31
0.0
  0
LINE
  8
0
 62
     0
 10
244.325
 20
0.522277
 30
0.0
 11
244.119
 21
0.40652
 31
0.0
  0
LINE
  8
0
 62
     0
 10
244.119
 20
0.40652
 30
0.0
 11
243.906
 21
0.308681
 31
0.0
  0
LINE
  8
0
 62
     0
 10
243.906
 20
0.308681
 30
0.0
 11
243.685
 21
0.225998
 31
0.0
  0
LINE
  8
0
 62
     0
 10
243.685
 20
0.225998
 30
0.0
 11
243.458
 21
0.162609
 31
0.0
  0
LINE
  8
0
 62
     0
 10
243.458
 20
0.162609
 30
0.0
 11
243.227
 21
0.117133
 31
0.0
  0
LINE
  8
0
 62
     0
 10
243.227
 20
0.117133
 30
0.0
 11
242.992
 21
0.0895724
 31
0.0
  0
LINE
  8
0
 62
     0
 10
242.992
 20
0.0895724
 30
0.0
 11
242.758
 21
0.0799264
 31
0.0
  0
LINE
  8
0
 62
     0
 10
242.758
 20
0.0799264
 30
0.0
 11
3.09507
 21
0.0799264
 31
0.0
  0
LINE
  8
0
 62
     0
 10
3.09507
 20
0.0799264
 30
0.0
 11
2.85943
 21
0.0895724
 31
0.0
  0
LINE
  8
0
 62
     0
 10
2.85943
 20
0.0895724
 30
0.0
 11
2.62516
 21
0.117133
 31
0.0
  0
LINE
  8
0
 62
     0
 10
2.62516
 20
0.117133
 30
0.0
 11
2.39365
 21
0.162609
 31
0.0
  0
LINE
  8
0
 62
     0
 10
2.39365
 20
0.162609
 30
0.0
 11
2.16628
 21
0.225998
 31
0.0
  0
LINE
  8
0
 62
     0
 10
2.16628
 20
0.225998
 30
0.0
 11
1.94579
 21
0.308681
 31
0.0
  0
LINE
  8
0
 62
     0
 10
1.94579
 20
0.308681
 30
0.0
 11
1.7322
 21
0.40652
 31
0.0
  0
LINE
  8
0
 62
     0
 10
1.7322
 20
0.40652
 30
0.0
 11
1.52687
 21
0.522277
 31
0.0
  0
LINE
  8
0
 62
     0
 10
1.52687
 20
0.522277
 30
0.0
 11
1.33119
 21
0.653189
 31
0.0
  0
LINE
  8
0
 62
     0
 10
1.33119
 20
0.653189
 30
0.0
 11
1.14515
 21
0.799264
 31
0.0
  0
LINE
  8
0
 62
     0
 10
1.14515
 20
0.799264
 30
0.0
 11
0.972894
 21
0.959115
 31
0.0
  0
LINE
  8
0
 62
     0
 10
0.972894
 20
0.959115
 30
0.0
 11
0.813043
 21
1.13137
 31
0.0
  0
LINE
  8
0
 62
     0
 10
0.813043
 20
1.13137
 30
0.0
 11
0.666972
 21
1.31603
 31
0.0
  0
LINE
  8
0
 62
     0
 10
0.666972
 20
1.31603
 30
0.0
 11
0.537436
 21
1.51309
 31
0.0
  0
LINE
  8
0
 62
     0
 10
0.537436
 20
1.51309
 30
0.0
 11
0.420303
 21
1.71841
 31
0.0
  0
LINE
  8
0
 62
     0
 10
0.420303
 20
1.71841
 30
0.0
 11
0.322461
 21
1.93201
 31
0.0
  0
LINE
  8
0
 62
     0
 10
0.322461
 20
1.93201
 30
0.0
 11
0.241157
 21
2.15249
 31
0.0
  0
LINE
  8
0
 62
     0
 10
0.241157
 20
2.15249
 30
0.0
 11
0.176389
 21
2.37987
 31
0.0
  0
LINE
  8
0
 62
     0
 10
0.176389
 20
2.37987
 30
0.0
 11
0.130914
 21
2.61001
 31
0.0
  0
LINE
  8
0
 62
     0
 10
0.130914
 20
2.61001
 30
0.0
 11
0.103353
 21
2.84427
 31
0.0
  0
LINE
  8
0
 62
     0
 10
0.103353
 20
2.84427
 30
0.0
 11
0.0937066
 21
3.07992
 31
0.0
  0
LINE
  8
0
 62
     0
 10
0.0937066
 20
3.07992
 30
0.0
 11
0.0950846
 21
114.155
 31
0.0
  0
LINE
  8
0
 62
     0
 10
0.0950846
 20
114.155
 30
0.0
 11
0.103353
 21
114.391
 31
0.0
  0
LINE
  8
0
 62
     0
 10
0.103353
 20
114.391
 30
0.0
 11
0.130914
 21
114.625
 31
0.0
  0
LINE
  8
0
 62
     0
 10
0.130914
 20
114.625
 30
0.0
 11
0.176389
 21
114.857
 31
0.0
  0
LINE
  8
0
 62
     0
 10
0.176389
 20
114.857
 30
0.0
 11
0.241157
 21
115.084
 31
0.0
  0
LINE
  8
0
 62
     0
 10
0.241157
 20
115.084
 30
0.0
 11
0.322461
 21
115.305
 31
0.0
  0
LINE
  8
0
 62
     0
 10
0.322461
 20
115.305
 30
0.0
 11
0.420303
 21
115.518
 31
0.0
  0
LINE
  8
0
 62
     0
 10
0.420303
 20
115.518
 30
0.0
 11
0.537436
 21
115.723
 31
0.0
  0
LINE
  8
0
 62
     0
 10
0.537436
 20
115.723
 30
0.0
 11
0.666972
 21
115.919
 31
0.0
  0
LINE
  8
0
 62
     0
 10
0.666972
 20
115.919
 30
0.0
 11
0.813043
 21
116.105
 31
0.0
  0
LINE
  8
0
 62
     0
 10
0.813043
 20
116.105
 30
0.0
 11
0.972894
 21
116.277
 31
0.0
  0
LINE
  8
0
 62
     0
 10
0.972894
 20
116.277
 30
0.0
 11
1.14515
 21
116.437
 31
0.0
  0
LINE
  8
0
 62
     0
 10
1.14515
 20
116.437
 30
0.0
 11
1.33119
 21
116.584
 31
0.0
  0
LINE
  8
0
 62
     0
 10
1.33119
 20
116.584
 30
0.0
 11
1.52687
 21
116.713
 31
0.0
  0
LINE
  8
0
 62
     0
 10
1.52687
 20
116.713
 30
0.0
 11
1.7322
 21
116.83
 31
0.0
  0
LINE
  8
0
 62
     0
 10
1.7322
 20
116.83
 30
0.0
 11
1.94579
 21
116.928
 31
0.0
  0
LINE
  8
0
 62
     0
 10
1.94579
 20
116.928
 30
0.0
 11
2.16628
 21
117.009
 31
0.0
  0
LINE
  8
0
 62
     0
 10
2.16628
 20
117.009
 30
0.0
 11
2.39365
 21
117.074
 31
0.0
  0
LINE
  8
0
 62
     0
 10
2.39365
 20
117.074
 30
0.0
 11
2.62516
 21
117.119
 31
0.0
  0
LINE
  8
0
 62
     0
 10
2.62516
 20
117.119
 30
0.0
 11
2.85943
 21
117.147
 31
0.0
  0
LINE
  8
0
 62
     0
 10
2.85943
 20
117.147
 30
0.0
 11
3.09507
 21
117.157
 31
0.0
  0
LINE
  8
0
 62
     0
 10
3.09507
 20
117.157
 30
0.0
 11
242.758
 21
117.155
 31
0.0
  0
LINE
  8
0
 62
     0
 10
242.768
 20
3.77719
 30
0.0
 11
242.46
 21
3.6201
 31
0.0
  0
LINE
  8
0
 62
     0
 10
242.46
 20
3.6201
 30
0.0
 11
242.218
 21
3.37619
 31
0.0
  0
LINE
  8
0
 62
     0
 10
242.218
 20
3.37619
 30
0.0
 11
242.062
 21
3.07027
 31
0.0
  0
LINE
  8
0
 62
     0
 10
242.062
 20
3.07027
 30
0.0
 11
242.008
 21
2.72989
 31
0.0
  0
LINE
  8
0
 62
     0
 10
242.008
 20
2.72989
 30
0.0
 11
242.062
 21
2.39089
 31
0.0
  0
LINE
  8
0
 62
     0
 10
242.062
 20
2.39089
 30
0.0
 11
242.218
 21
2.08359
 31
0.0
  0
LINE
  8
0
 62
     0
 10
242.218
 20
2.08359
 30
0.0
 11
242.46
 21
1.84106
 31
0.0
  0
LINE
  8
0
 62
     0
 10
242.46
 20
1.84106
 30
0.0
 11
242.768
 21
1.68396
 31
0.0
  0
LINE
  8
0
 62
     0
 10
242.768
 20
1.68396
 30
0.0
 11
243.108
 21
1.63022
 31
0.0
  0
LINE
  8
0
 62
     0
 10
243.108
 20
1.63022
 30
0.0
 11
243.448
 21
1.68396
 31
0.0
  0
LINE
  8
0
 62
     0
 10
243.448
 20
1.68396
 30
0.0
 11
243.754
 21
1.84106
 31
0.0
  0
LINE
  8
0
 62
     0
 10
243.754
 20
1.84106
 30
0.0
 11
243.998
 21
2.08359
 31
0.0
  0
LINE
  8
0
 62
     0
 10
243.998
 20
2.08359
 30
0.0
 11
244.154
 21
2.39089
 31
0.0
  0
LINE
  8
0
 62
     0
 10
244.154
 20
2.39089
 30
0.0
 11
244.208
 21
2.72989
 31
0.0
  0
LINE
  8
0
 62
     0
 10
244.208
 20
2.72989
 30
0.0
 11
244.154
 21
3.07027
 31
0.0
  0
LINE
  8
0
 62
     0
 10
244.154
 20
3.07027
 30
0.0
 11
243.998
 21
3.37619
 31
0.0
  0
LINE
  8
0
 62
     0
 10
243.998
 20
3.37619
 30
0.0
 11
243.754
 21
3.6201
 31
0.0
  0
LINE
  8
0
 62
     0
 10
243.754
 20
3.6201
 30
0.0
 11
243.448
 21
3.77719
 31
0.0
  0
LINE
  8
0
 62
     0
 10
243.448
 20
3.77719
 30
0.0
 11
243.108
 21
3.82958
 31
0.0
  0
LINE
  8
0
 62
     0
 10
243.108
 20
3.82958
 30
0.0
 11
242.768
 21
3.77719
 31
0.0
  0
LINE
  8
0
 62
     0
 10
162.647
 20
3.77719
 30
0.0
 11
162.34
 21
3.6201
 31
0.0
  0
LINE
  8
0
 62
     0
 10
162.34
 20
3.6201
 30
0.0
 11
162.097
 21
3.37619
 31
0.0
  0
LINE
  8
0
 62
     0
 10
162.097
 20
3.37619
 30
0.0
 11
161.94
 21
3.07027
 31
0.0
  0
LINE
  8
0
 62
     0
 10
161.94
 20
3.07027
 30
0.0
 11
161.887
 21
2.72989
 31
0.0
  0
LINE
  8
0
 62
     0
 10
161.887
 20
2.72989
 30
0.0
 11
161.94
 21
2.39089
 31
0.0
  0
LINE
  8
0
 62
     0
 10
161.94
 20
2.39089
 30
0.0
 11
162.097
 21
2.08359
 31
0.0
  0
LINE
  8
0
 62
     0
 10
162.097
 20
2.08359
 30
0.0
 11
162.34
 21
1.84106
 31
0.0
  0
LINE
  8
0
 62
     0
 10
162.34
 20
1.84106
 30
0.0
 11
162.647
 21
1.68396
 31
0.0
  0
LINE
  8
0
 62
     0
 10
162.647
 20
1.68396
 30
0.0
 11
162.986
 21
1.63022
 31
0.0
  0
LINE
  8
0
 62
     0
 10
162.986
 20
1.63022
 30
0.0
 11
163.327
 21
1.68396
 31
0.0
  0
LINE
  8
0
 62
     0
 10
163.327
 20
1.68396
 30
0.0
 11
163.632
 21
1.84106
 31
0.0
  0
LINE
  8
0
 62
     0
 10
163.632
 20
1.84106
 30
0.0
 11
163.876
 21
2.08359
 31
0.0
  0
LINE
  8
0
 62
     0
 10
163.876
 20
2.08359
 30
0.0
 11
164.034
 21
2.39089
 31
0.0
  0
LINE
  8
0
 62
     0
 10
164.034
 20
2.39089
 30
0.0
 11
164.087
 21
2.72989
 31
0.0
  0
LINE
  8
0
 62
     0
 10
164.087
 20
2.72989
 30
0.0
 11
164.034
 21
3.07027
 31
0.0
  0
LINE
  8
0
 62
     0
 10
164.034
 20
3.07027
 30
0.0
 11
163.876
 21
3.37619
 31
0.0
  0
LINE
  8
0
 62
     0
 10
163.876
 20
3.37619
 30
0.0
 11
163.632
 21
3.6201
 31
0.0
  0
LINE
  8
0
 62
     0
 10
163.632
 20
3.6201
 30
0.0
 11
163.327
 21
3.77719
 31
0.0
  0
LINE
  8
0
 62
     0
 10
163.327
 20
3.77719
 30
0.0
 11
162.986
 21
3.82958
 31
0.0
  0
LINE
  8
0
 62
     0
 10
162.986
 20
3.82958
 30
0.0
 11
162.647
 21
3.77719
 31
0.0
  0
LINE
  8
0
 62
     0
 10
82.5253
 20
3.77719
 30
0.0
 11
82.2194
 21
3.6201
 31
0.0
  0
LINE
  8
0
 62
     0
 10
82.2194
 20
3.6201
 30
0.0
 11
81.9753
 21
3.37619
 31
0.0
  0
LINE
  8
0
 62
     0
 10
81.9753
 20
3.37619
 30
0.0
 11
81.8197
 21
3.07027
 31
0.0
  0
LINE
  8
0
 62
     0
 10
81.8197
 20
3.07027
 30
0.0
 11
81.7658
 21
2.72989
 31
0.0
  0
LINE
  8
0
 62
     0
 10
81.7658
 20
2.72989
 30
0.0
 11
81.8197
 21
2.39089
 31
0.0
  0
LINE
  8
0
 62
     0
 10
81.8197
 20
2.39089
 30
0.0
 11
81.9753
 21
2.08359
 31
0.0
  0
LINE
  8
0
 62
     0
 10
81.9753
 20
2.08359
 30
0.0
 11
82.2194
 21
1.84106
 31
0.0
  0
LINE
  8
0
 62
     0
 10
82.2194
 20
1.84106
 30
0.0
 11
82.5253
 21
1.68396
 31
0.0
  0
LINE
  8
0
 62
     0
 10
82.5253
 20
1.68396
 30
0.0
 11
82.8657
 21
1.63022
 31
0.0
  0
LINE
  8
0
 62
     0
 10
82.8657
 20
1.63022
 30
0.0
 11
83.2058
 21
1.68396
 31
0.0
  0
LINE
  8
0
 62
     0
 10
83.2058
 20
1.68396
 30
0.0
 11
83.512
 21
1.84106
 31
0.0
  0
LINE
  8
0
 62
     0
 10
83.512
 20
1.84106
 30
0.0
 11
83.7558
 21
2.08359
 31
0.0
  0
LINE
  8
0
 62
     0
 10
83.7558
 20
2.08359
 30
0.0
 11
83.9114
 21
2.39089
 31
0.0
  0
LINE
  8
0
 62
     0
 10
83.9114
 20
2.39089
 30
0.0
 11
83.9653
 21
2.72989
 31
0.0
  0
LINE
  8
0
 62
     0
 10
83.9653
 20
2.72989
 30
0.0
 11
83.9114
 21
3.07027
 31
0.0
  0
LINE
  8
0
 62
     0
 10
83.9114
 20
3.07027
 30
0.0
 11
83.7558
 21
3.37619
 31
0.0
  0
LINE
  8
0
 62
     0
 10
83.7558
 20
3.37619
 30
0.0
 11
83.512
 21
3.6201
 31
0.0
  0
LINE
  8
0
 62
     0
 10
83.512
 20
3.6201
 30
0.0
 11
83.2058
 21
3.77719
 31
0.0
  0
LINE
  8
0
 62
     0
 10
83.2058
 20
3.77719
 30
0.0
 11
82.8657
 21
3.82958
 31
0.0
  0
LINE
  8
0
 62
     0
 10
82.8657
 20
3.82958
 30
0.0
 11
82.5253
 21
3.77719
 31
0.0
  0
LINE
  8
0
 62
     0
 10
2.40468
 20
3.77719
 30
0.0
 11
2.09737
 21
3.6201
 31
0.0
  0
LINE
  8
0
 62
     0
 10
2.09737
 20
3.6201
 30
0.0
 11
1.85484
 21
3.37619
 31
0.0
  0
LINE
  8
0
 62
     0
 10
1.85484
 20
3.37619
 30
0.0
 11
1.69774
 21
3.07027
 31
0.0
  0
LINE
  8
0
 62
     0
 10
1.69774
 20
3.07027
 30
0.0
 11
1.64538
 21
2.72989
 31
0.0
  0
LINE
  8
0
 62
     0
 10
1.64538
 20
2.72989
 30
0.0
 11
1.69774
 21
2.39089
 31
0.0
  0
LINE
  8
0
 62
     0
 10
1.69774
 20
2.39089
 30
0.0
 11
1.85484
 21
2.08359
 31
0.0
  0
LINE
  8
0
 62
     0
 10
1.85484
 20
2.08359
 30
0.0
 11
2.09737
 21
1.84106
 31
0.0
  0
LINE
  8
0
 62
     0
 10
2.09737
 20
1.84106
 30
0.0
 11
2.40468
 21
1.68396
 31
0.0
  0
LINE
  8
0
 62
     0
 10
2.40468
 20
1.68396
 30
0.0
 11
2.74505
 21
1.63022
 31
0.0
  0
LINE
  8
0
 62
     0
 10
2.74505
 20
1.63022
 30
0.0
 11
3.08405
 21
1.68396
 31
0.0
  0
LINE
  8
0
 62
     0
 10
3.08405
 20
1.68396
 30
0.0
 11
3.39135
 21
1.84106
 31
0.0
  0
LINE
  8
0
 62
     0
 10
3.39135
 20
1.84106
 30
0.0
 11
3.63389
 21
2.08359
 31
0.0
  0
LINE
  8
0
 62
     0
 10
3.63389
 20
2.08359
 30
0.0
 11
3.79099
 21
2.39089
 31
0.0
  0
LINE
  8
0
 62
     0
 10
3.79099
 20
2.39089
 30
0.0
 11
3.84471
 21
2.72989
 31
0.0
  0
LINE
  8
0
 62
     0
 10
3.84471
 20
2.72989
 30
0.0
 11
3.79099
 21
3.07027
 31
0.0
  0
LINE
  8
0
 62
     0
 10
3.79099
 20
3.07027
 30
0.0
 11
3.63389
 21
3.37619
 31
0.0
  0
LINE
  8
0
 62
     0
 10
3.63389
 20
3.37619
 30
0.0
 11
3.39135
 21
3.6201
 31
0.0
  0
LINE
  8
0
 62
     0
 10
3.39135
 20
3.6201
 30
0.0
 11
3.08405
 21
3.77719
 31
0.0
  0
LINE
  8
0
 62
     0
 10
3.08405
 20
3.77719
 30
0.0
 11
2.74505
 21
3.82958
 31
0.0
  0
LINE
  8
0
 62
     0
 10
2.74505
 20
3.82958
 30
0.0
 11
2.40468
 21
3.77719
 31
0.0
  0
LINE
  8
0
 62
     0
 10
94.645
 20
22.6053
 30
0.0
 11
94.645
 21
22.0059
 31
0.0
  0
LINE
  8
0
 62
     0
 10
94.645
 20
22.0059
 30
0.0
 11
93.8445
 21
22.0059
 31
0.0
  0
LINE
  8
0
 62
     0
 10
93.8445
 20
22.0059
 30
0.0
 11
93.8445
 21
9.5057
 31
0.0
  0
LINE
  8
0
 62
     0
 10
93.8445
 20
9.5057
 30
0.0
 11
94.645
 21
9.5057
 31
0.0
  0
LINE
  8
0
 62
     0
 10
94.645
 20
9.5057
 30
0.0
 11
94.645
 21
8.90626
 31
0.0
  0
LINE
  8
0
 62
     0
 10
94.645
 20
8.90626
 30
0.0
 11
108.344
 21
8.90626
 31
0.0
  0
LINE
  8
0
 62
     0
 10
108.344
 20
8.90626
 30
0.0
 11
108.344
 21
9.5057
 31
0.0
  0
LINE
  8
0
 62
     0
 10
108.344
 20
9.5057
 30
0.0
 11
109.145
 21
9.5057
 31
0.0
  0
LINE
  8
0
 62
     0
 10
109.145
 20
9.5057
 30
0.0
 11
109.145
 21
22.0059
 31
0.0
  0
LINE
  8
0
 62
     0
 10
109.145
 20
22.0059
 30
0.0
 11
108.344
 21
22.0059
 31
0.0
  0
LINE
  8
0
 62
     0
 10
108.344
 20
22.0059
 30
0.0
 11
108.344
 21
22.6053
 31
0.0
  0
LINE
  8
0
 62
     0
 10
108.344
 20
22.6053
 30
0.0
 11
94.645
 21
22.6053
 31
0.0
  0
LINE
  8
0
 62
     0
 10
132.745
 20
22.6053
 30
0.0
 11
132.745
 21
22.0059
 31
0.0
  0
LINE
  8
0
 62
     0
 10
132.745
 20
22.0059
 30
0.0
 11
131.945
 21
22.0059
 31
0.0
  0
LINE
  8
0
 62
     0
 10
131.945
 20
22.0059
 30
0.0
 11
131.945
 21
9.5057
 31
0.0
  0
LINE
  8
0
 62
     0
 10
131.945
 20
9.5057
 30
0.0
 11
132.745
 21
9.5057
 31
0.0
  0
LINE
  8
0
 62
     0
 10
132.745
 20
9.5057
 30
0.0
 11
132.745
 21
8.90626
 31
0.0
  0
LINE
  8
0
 62
     0
 10
132.745
 20
8.90626
 30
0.0
 11
146.444
 21
8.90626
 31
0.0
  0
LINE
  8
0
 62
     0
 10
146.444
 20
8.90626
 30
0.0
 11
146.444
 21
9.5057
 31
0.0
  0
LINE
  8
0
 62
     0
 10
146.444
 20
9.5057
 30
0.0
 11
147.245
 21
9.5057
 31
0.0
  0
LINE
  8
0
 62
     0
 10
147.245
 20
9.5057
 30
0.0
 11
147.245
 21
22.0059
 31
0.0
  0
LINE
  8
0
 62
     0
 10
147.245
 20
22.0059
 30
0.0
 11
146.444
 21
22.0059
 31
0.0
  0
LINE
  8
0
 62
     0
 10
146.444
 20
22.0059
 30
0.0
 11
146.444
 21
22.6053
 31
0.0
  0
LINE
  8
0
 62
     0
 10
146.444
 20
22.6053
 30
0.0
 11
132.745
 21
22.6053
 31
0.0
  0
LINE
  8
0
 62
     0
 10
27.9701
 20
32.1303
 30
0.0
 11
27.9701
 21
31.5309
 31
0.0
  0
LINE
  8
0
 62
     0
 10
27.9701
 20
31.5309
 30
0.0
 11
27.1694
 21
31.5309
 31
0.0
  0
LINE
  8
0
 62
     0
 10
27.1694
 20
31.5309
 30
0.0
 11
27.1694
 21
19.0307
 31
0.0
  0
LINE
  8
0
 62
     0
 10
27.1694
 20
19.0307
 30
0.0
 11
27.9701
 21
19.0307
 31
0.0
  0
LINE
  8
0
 62
     0
 10
27.9701
 20
19.0307
 30
0.0
 11
27.9701
 21
18.4313
 31
0.0
  0
LINE
  8
0
 62
     0
 10
27.9701
 20
18.4313
 30
0.0
 11
41.6691
 21
18.4313
 31
0.0
  0
LINE
  8
0
 62
     0
 10
41.6691
 20
18.4313
 30
0.0
 11
41.6691
 21
19.0307
 31
0.0
  0
LINE
  8
0
 62
     0
 10
41.6691
 20
19.0307
 30
0.0
 11
42.4699
 21
19.0307
 31
0.0
  0
LINE
  8
0
 62
     0
 10
42.4699
 20
19.0307
 30
0.0
 11
42.4699
 21
31.5309
 31
0.0
  0
LINE
  8
0
 62
     0
 10
42.4699
 20
31.5309
 30
0.0
 11
41.6691
 21
31.5309
 31
0.0
  0
LINE
  8
0
 62
     0
 10
41.6691
 20
31.5309
 30
0.0
 11
41.6691
 21
32.1303
 31
0.0
  0
LINE
  8
0
 62
     0
 10
41.6691
 20
32.1303
 30
0.0
 11
27.9701
 21
32.1303
 31
0.0
  0
LINE
  8
0
 62
     0
 10
47.02
 20
32.1303
 30
0.0
 11
47.02
 21
31.5309
 31
0.0
  0
LINE
  8
0
 62
     0
 10
47.02
 20
31.5309
 30
0.0
 11
46.2195
 21
31.5309
 31
0.0
  0
LINE
  8
0
 62
     0
 10
46.2195
 20
31.5309
 30
0.0
 11
46.2195
 21
19.0307
 31
0.0
  0
LINE
  8
0
 62
     0
 10
46.2195
 20
19.0307
 30
0.0
 11
47.02
 21
19.0307
 31
0.0
  0
LINE
  8
0
 62
     0
 10
47.02
 20
19.0307
 30
0.0
 11
47.02
 21
18.4313
 31
0.0
  0
LINE
  8
0
 62
     0
 10
47.02
 20
18.4313
 30
0.0
 11
60.7191
 21
18.4313
 31
0.0
  0
LINE
  8
0
 62
     0
 10
60.7191
 20
18.4313
 30
0.0
 11
60.7191
 21
19.0307
 31
0.0
  0
LINE
  8
0
 62
     0
 10
60.7191
 20
19.0307
 30
0.0
 11
61.5199
 21
19.0307
 31
0.0
  0
LINE
  8
0
 62
     0
 10
61.5199
 20
19.0307
 30
0.0
 11
61.5199
 21
31.5309
 31
0.0
  0
LINE
  8
0
 62
     0
 10
61.5199
 20
31.5309
 30
0.0
 11
60.7191
 21
31.5309
 31
0.0
  0
LINE
  8
0
 62
     0
 10
60.7191
 20
31.5309
 30
0.0
 11
60.7191
 21
32.1303
 31
0.0
  0
LINE
  8
0
 62
     0
 10
60.7191
 20
32.1303
 30
0.0
 11
47.02
 21
32.1303
 31
0.0
  0
LINE
  8
0
 62
     0
 10
66.07
 20
32.1303
 30
0.0
 11
66.07
 21
31.5309
 31
0.0
  0
LINE
  8
0
 62
     0
 10
66.07
 20
31.5309
 30
0.0
 11
65.2695
 21
31.5309
 31
0.0
  0
LINE
  8
0
 62
     0
 10
65.2695
 20
31.5309
 30
0.0
 11
65.2695
 21
19.0307
 31
0.0
  0
LINE
  8
0
 62
     0
 10
65.2695
 20
19.0307
 30
0.0
 11
66.07
 21
19.0307
 31
0.0
  0
LINE
  8
0
 62
     0
 10
66.07
 20
19.0307
 30
0.0
 11
66.07
 21
18.4313
 31
0.0
  0
LINE
  8
0
 62
     0
 10
66.07
 20
18.4313
 30
0.0
 11
79.7691
 21
18.4313
 31
0.0
  0
LINE
  8
0
 62
     0
 10
79.7691
 20
18.4313
 30
0.0
 11
79.7691
 21
19.0307
 31
0.0
  0
LINE
  8
0
 62
     0
 10
79.7691
 20
19.0307
 30
0.0
 11
80.5699
 21
19.0307
 31
0.0
  0
LINE
  8
0
 62
     0
 10
80.5699
 20
19.0307
 30
0.0
 11
80.5699
 21
31.5309
 31
0.0
  0
LINE
  8
0
 62
     0
 10
80.5699
 20
31.5309
 30
0.0
 11
79.7691
 21
31.5309
 31
0.0
  0
LINE
  8
0
 62
     0
 10
79.7691
 20
31.5309
 30
0.0
 11
79.7691
 21
32.1303
 31
0.0
  0
LINE
  8
0
 62
     0
 10
79.7691
 20
32.1303
 30
0.0
 11
66.07
 21
32.1303
 31
0.0
  0
LINE
  8
0
 62
     0
 10
166.081
 20
32.1303
 30
0.0
 11
166.081
 21
31.5309
 31
0.0
  0
LINE
  8
0
 62
     0
 10
166.081
 20
31.5309
 30
0.0
 11
165.282
 21
31.5309
 31
0.0
  0
LINE
  8
0
 62
     0
 10
165.282
 20
31.5309
 30
0.0
 11
165.282
 21
19.0307
 31
0.0
  0
LINE
  8
0
 62
     0
 10
165.282
 20
19.0307
 30
0.0
 11
166.081
 21
19.0307
 31
0.0
  0
LINE
  8
0
 62
     0
 10
166.081
 20
19.0307
 30
0.0
 11
166.081
 21
18.4313
 31
0.0
  0
LINE
  8
0
 62
     0
 10
166.081
 20
18.4313
 30
0.0
 11
179.782
 21
18.4313
 31
0.0
  0
LINE
  8
0
 62
     0
 10
179.782
 20
18.4313
 30
0.0
 11
179.782
 21
19.0307
 31
0.0
  0
LINE
  8
0
 62
     0
 10
179.782
 20
19.0307
 30
0.0
 11
180.582
 21
19.0307
 31
0.0
  0
LINE
  8
0
 62
     0
 10
180.582
 20
19.0307
 30
0.0
 11
180.582
 21
31.5309
 31
0.0
  0
LINE
  8
0
 62
     0
 10
180.582
 20
31.5309
 30
0.0
 11
179.782
 21
31.5309
 31
0.0
  0
LINE
  8
0
 62
     0
 10
179.782
 20
31.5309
 30
0.0
 11
179.782
 21
32.1303
 31
0.0
  0
LINE
  8
0
 62
     0
 10
179.782
 20
32.1303
 30
0.0
 11
166.081
 21
32.1303
 31
0.0
  0
LINE
  8
0
 62
     0
 10
185.131
 20
32.1303
 30
0.0
 11
185.131
 21
31.5309
 31
0.0
  0
LINE
  8
0
 62
     0
 10
185.131
 20
31.5309
 30
0.0
 11
184.332
 21
31.5309
 31
0.0
  0
LINE
  8
0
 62
     0
 10
184.332
 20
31.5309
 30
0.0
 11
184.332
 21
19.0307
 31
0.0
  0
LINE
  8
0
 62
     0
 10
184.332
 20
19.0307
 30
0.0
 11
185.131
 21
19.0307
 31
0.0
  0
LINE
  8
0
 62
     0
 10
185.131
 20
19.0307
 30
0.0
 11
185.131
 21
18.4313
 31
0.0
  0
LINE
  8
0
 62
     0
 10
185.131
 20
18.4313
 30
0.0
 11
198.832
 21
18.4313
 31
0.0
  0
LINE
  8
0
 62
     0
 10
198.832
 20
18.4313
 30
0.0
 11
198.832
 21
19.0307
 31
0.0
  0
LINE
  8
0
 62
     0
 10
198.832
 20
19.0307
 30
0.0
 11
199.632
 21
19.0307
 31
0.0
  0
LINE
  8
0
 62
     0
 10
199.632
 20
19.0307
 30
0.0
 11
199.632
 21
31.5309
 31
0.0
  0
LINE
  8
0
 62
     0
 10
199.632
 20
31.5309
 30
0.0
 11
198.832
 21
31.5309
 31
0.0
  0
LINE
  8
0
 62
     0
 10
198.832
 20
31.5309
 30
0.0
 11
198.832
 21
32.1303
 31
0.0
  0
LINE
  8
0
 62
     0
 10
198.832
 20
32.1303
 30
0.0
 11
185.131
 21
32.1303
 31
0.0
  0
LINE
  8
0
 62
     0
 10
204.181
 20
32.1303
 30
0.0
 11
204.181
 21
31.5309
 31
0.0
  0
LINE
  8
0
 62
     0
 10
204.181
 20
31.5309
 30
0.0
 11
203.382
 21
31.5309
 31
0.0
  0
LINE
  8
0
 62
     0
 10
203.382
 20
31.5309
 30
0.0
 11
203.382
 21
19.0307
 31
0.0
  0
LINE
  8
0
 62
     0
 10
203.382
 20
19.0307
 30
0.0
 11
204.181
 21
19.0307
 31
0.0
  0
LINE
  8
0
 62
     0
 10
204.181
 20
19.0307
 30
0.0
 11
204.181
 21
18.4313
 31
0.0
  0
LINE
  8
0
 62
     0
 10
204.181
 20
18.4313
 30
0.0
 11
217.882
 21
18.4313
 31
0.0
  0
LINE
  8
0
 62
     0
 10
217.882
 20
18.4313
 30
0.0
 11
217.882
 21
19.0307
 31
0.0
  0
LINE
  8
0
 62
     0
 10
217.882
 20
19.0307
 30
0.0
 11
218.682
 21
19.0307
 31
0.0
  0
LINE
  8
0
 62
     0
 10
218.682
 20
19.0307
 30
0.0
 11
218.682
 21
31.5309
 31
0.0
  0
LINE
  8
0
 62
     0
 10
218.682
 20
31.5309
 30
0.0
 11
217.882
 21
31.5309
 31
0.0
  0
LINE
  8
0
 62
     0
 10
217.882
 20
31.5309
 30
0.0
 11
217.882
 21
32.1303
 31
0.0
  0
LINE
  8
0
 62
     0
 10
217.882
 20
32.1303
 30
0.0
 11
204.181
 21
32.1303
 31
0.0
  0
LINE
  8
0
 62
     0
 10
8.92006
 20
46.4192
 30
0.0
 11
8.92006
 21
45.8184
 31
0.0
  0
LINE
  8
0
 62
     0
 10
8.92006
 20
45.8184
 30
0.0
 11
8.11939
 21
45.8184
 31
0.0
  0
LINE
  8
0
 62
     0
 10
8.11939
 20
45.8184
 30
0.0
 11
8.11939
 21
33.3182
 31
0.0
  0
LINE
  8
0
 62
     0
 10
8.11939
 20
33.3182
 30
0.0
 11
8.92006
 21
33.3182
 31
0.0
  0
LINE
  8
0
 62
     0
 10
8.92006
 20
33.3182
 30
0.0
 11
8.92006
 21
32.7188
 31
0.0
  0
LINE
  8
0
 62
     0
 10
8.92006
 20
32.7188
 30
0.0
 11
22.6191
 21
32.7188
 31
0.0
  0
LINE
  8
0
 62
     0
 10
22.6191
 20
32.7188
 30
0.0
 11
22.6191
 21
33.3182
 31
0.0
  0
LINE
  8
0
 62
     0
 10
22.6191
 20
33.3182
 30
0.0
 11
23.4198
 21
33.3182
 31
0.0
  0
LINE
  8
0
 62
     0
 10
23.4198
 20
33.3182
 30
0.0
 11
23.4198
 21
45.8184
 31
0.0
  0
LINE
  8
0
 62
     0
 10
23.4198
 20
45.8184
 30
0.0
 11
22.6191
 21
45.8184
 31
0.0
  0
LINE
  8
0
 62
     0
 10
22.6191
 20
45.8184
 30
0.0
 11
22.6191
 21
46.4192
 31
0.0
  0
LINE
  8
0
 62
     0
 10
22.6191
 20
46.4192
 30
0.0
 11
8.92006
 21
46.4192
 31
0.0
  0
LINE
  8
0
 62
     0
 10
223.231
 20
46.4192
 30
0.0
 11
223.231
 21
45.8184
 31
0.0
  0
LINE
  8
0
 62
     0
 10
223.231
 20
45.8184
 30
0.0
 11
222.432
 21
45.8184
 31
0.0
  0
LINE
  8
0
 62
     0
 10
222.432
 20
45.8184
 30
0.0
 11
222.432
 21
33.3182
 31
0.0
  0
LINE
  8
0
 62
     0
 10
222.432
 20
33.3182
 30
0.0
 11
223.231
 21
33.3182
 31
0.0
  0
LINE
  8
0
 62
     0
 10
223.231
 20
33.3182
 30
0.0
 11
223.231
 21
32.7188
 31
0.0
  0
LINE
  8
0
 62
     0
 10
223.231
 20
32.7188
 30
0.0
 11
236.932
 21
32.7188
 31
0.0
  0
LINE
  8
0
 62
     0
 10
236.932
 20
32.7188
 30
0.0
 11
236.932
 21
33.3182
 31
0.0
  0
LINE
  8
0
 62
     0
 10
236.932
 20
33.3182
 30
0.0
 11
237.732
 21
33.3182
 31
0.0
  0
LINE
  8
0
 62
     0
 10
237.732
 20
33.3182
 30
0.0
 11
237.732
 21
45.8184
 31
0.0
  0
LINE
  8
0
 62
     0
 10
237.732
 20
45.8184
 30
0.0
 11
236.932
 21
45.8184
 31
0.0
  0
LINE
  8
0
 62
     0
 10
236.932
 20
45.8184
 30
0.0
 11
236.932
 21
46.4192
 31
0.0
  0
LINE
  8
0
 62
     0
 10
236.932
 20
46.4192
 30
0.0
 11
223.231
 21
46.4192
 31
0.0
  0
LINE
  8
0
 62
     0
 10
27.9701
 20
51.1803
 30
0.0
 11
27.9701
 21
50.5823
 31
0.0
  0
LINE
  8
0
 62
     0
 10
27.9701
 20
50.5823
 30
0.0
 11
27.1694
 21
50.5823
 31
0.0
  0
LINE
  8
0
 62
     0
 10
27.1694
 20
50.5823
 30
0.0
 11
27.1694
 21
38.082
 31
0.0
  0
LINE
  8
0
 62
     0
 10
27.1694
 20
38.082
 30
0.0
 11
27.9701
 21
38.082
 31
0.0
  0
LINE
  8
0
 62
     0
 10
27.9701
 20
38.082
 30
0.0
 11
27.9701
 21
37.4812
 31
0.0
  0
LINE
  8
0
 62
     0
 10
27.9701
 20
37.4812
 30
0.0
 11
41.6691
 21
37.4812
 31
0.0
  0
LINE
  8
0
 62
     0
 10
41.6691
 20
37.4812
 30
0.0
 11
41.6691
 21
38.082
 31
0.0
  0
LINE
  8
0
 62
     0
 10
41.6691
 20
38.082
 30
0.0
 11
42.4699
 21
38.082
 31
0.0
  0
LINE
  8
0
 62
     0
 10
42.4699
 20
38.082
 30
0.0
 11
42.4699
 21
50.5823
 31
0.0
  0
LINE
  8
0
 62
     0
 10
42.4699
 20
50.5823
 30
0.0
 11
41.6691
 21
50.5823
 31
0.0
  0
LINE
  8
0
 62
     0
 10
41.6691
 20
50.5823
 30
0.0
 11
41.6691
 21
51.1803
 31
0.0
  0
LINE
  8
0
 62
     0
 10
41.6691
 20
51.1803
 30
0.0
 11
27.9701
 21
51.1803
 31
0.0
  0
LINE
  8
0
 62
     0
 10
47.02
 20
51.1803
 30
0.0
 11
47.02
 21
50.5823
 31
0.0
  0
LINE
  8
0
 62
     0
 10
47.02
 20
50.5823
 30
0.0
 11
46.2195
 21
50.5823
 31
0.0
  0
LINE
  8
0
 62
     0
 10
46.2195
 20
50.5823
 30
0.0
 11
46.2195
 21
38.082
 31
0.0
  0
LINE
  8
0
 62
     0
 10
46.2195
 20
38.082
 30
0.0
 11
47.02
 21
38.082
 31
0.0
  0
LINE
  8
0
 62
     0
 10
47.02
 20
38.082
 30
0.0
 11
47.02
 21
37.4812
 31
0.0
  0
LINE
  8
0
 62
     0
 10
47.02
 20
37.4812
 30
0.0
 11
60.7191
 21
37.4812
 31
0.0
  0
LINE
  8
0
 62
     0
 10
60.7191
 20
37.4812
 30
0.0
 11
60.7191
 21
38.082
 31
0.0
  0
LINE
  8
0
 62
     0
 10
60.7191
 20
38.082
 30
0.0
 11
61.5199
 21
38.082
 31
0.0
  0
LINE
  8
0
 62
     0
 10
61.5199
 20
38.082
 30
0.0
 11
61.5199
 21
50.5823
 31
0.0
  0
LINE
  8
0
 62
     0
 10
61.5199
 20
50.5823
 30
0.0
 11
60.7191
 21
50.5823
 31
0.0
  0
LINE
  8
0
 62
     0
 10
60.7191
 20
50.5823
 30
0.0
 11
60.7191
 21
51.1803
 31
0.0
  0
LINE
  8
0
 62
     0
 10
60.7191
 20
51.1803
 30
0.0
 11
47.02
 21
51.1803
 31
0.0
  0
LINE
  8
0
 62
     0
 10
66.07
 20
51.1803
 30
0.0
 11
66.07
 21
50.5823
 31
0.0
  0
LINE
  8
0
 62
     0
 10
66.07
 20
50.5823
 30
0.0
 11
65.2695
 21
50.5823
 31
0.0
  0
LINE
  8
0
 62
     0
 10
65.2695
 20
50.5823
 30
0.0
 11
65.2695
 21
38.082
 31
0.0
  0
LINE
  8
0
 62
     0
 10
65.2695
 20
38.082
 30
0.0
 11
66.07
 21
38.082
 31
0.0
  0
LINE
  8
0
 62
     0
 10
66.07
 20
38.082
 30
0.0
 11
66.07
 21
37.4812
 31
0.0
  0
LINE
  8
0
 62
     0
 10
66.07
 20
37.4812
 30
0.0
 11
79.7691
 21
37.4812
 31
0.0
  0
LINE
  8
0
 62
     0
 10
79.7691
 20
37.4812
 30
0.0
 11
79.7691
 21
38.082
 31
0.0
  0
LINE
  8
0
 62
     0
 10
79.7691
 20
38.082
 30
0.0
 11
80.5699
 21
38.082
 31
0.0
  0
LINE
  8
0
 62
     0
 10
80.5699
 20
38.082
 30
0.0
 11
80.5699
 21
50.5823
 31
0.0
  0
LINE
  8
0
 62
     0
 10
80.5699
 20
50.5823
 30
0.0
 11
79.7691
 21
50.5823
 31
0.0
  0
LINE
  8
0
 62
     0
 10
79.7691
 20
50.5823
 30
0.0
 11
79.7691
 21
51.1803
 31
0.0
  0
LINE
  8
0
 62
     0
 10
79.7691
 20
51.1803
 30
0.0
 11
66.07
 21
51.1803
 31
0.0
  0
LINE
  8
0
 62
     0
 10
166.081
 20
51.1803
 30
0.0
 11
166.081
 21
50.5823
 31
0.0
  0
LINE
  8
0
 62
     0
 10
166.081
 20
50.5823
 30
0.0
 11
165.282
 21
50.5823
 31
0.0
  0
LINE
  8
0
 62
     0
 10
165.282
 20
50.5823
 30
0.0
 11
165.282
 21
38.082
 31
0.0
  0
LINE
  8
0
 62
     0
 10
165.282
 20
38.082
 30
0.0
 11
166.081
 21
38.082
 31
0.0
  0
LINE
  8
0
 62
     0
 10
166.081
 20
38.082
 30
0.0
 11
166.081
 21
37.4812
 31
0.0
  0
LINE
  8
0
 62
     0
 10
166.081
 20
37.4812
 30
0.0
 11
179.782
 21
37.4812
 31
0.0
  0
LINE
  8
0
 62
     0
 10
179.782
 20
37.4812
 30
0.0
 11
179.782
 21
38.082
 31
0.0
  0
LINE
  8
0
 62
     0
 10
179.782
 20
38.082
 30
0.0
 11
180.582
 21
38.082
 31
0.0
  0
LINE
  8
0
 62
     0
 10
180.582
 20
38.082
 30
0.0
 11
180.582
 21
50.5823
 31
0.0
  0
LINE
  8
0
 62
     0
 10
180.582
 20
50.5823
 30
0.0
 11
179.782
 21
50.5823
 31
0.0
  0
LINE
  8
0
 62
     0
 10
179.782
 20
50.5823
 30
0.0
 11
179.782
 21
51.1803
 31
0.0
  0
LINE
  8
0
 62
     0
 10
179.782
 20
51.1803
 30
0.0
 11
166.081
 21
51.1803
 31
0.0
  0
LINE
  8
0
 62
     0
 10
185.131
 20
51.1803
 30
0.0
 11
185.131
 21
50.5823
 31
0.0
  0
LINE
  8
0
 62
     0
 10
185.131
 20
50.5823
 30
0.0
 11
184.332
 21
50.5823
 31
0.0
  0
LINE
  8
0
 62
     0
 10
184.332
 20
50.5823
 30
0.0
 11
184.332
 21
38.082
 31
0.0
  0
LINE
  8
0
 62
     0
 10
184.332
 20
38.082
 30
0.0
 11
185.131
 21
38.082
 31
0.0
  0
LINE
  8
0
 62
     0
 10
185.131
 20
38.082
 30
0.0
 11
185.131
 21
37.4812
 31
0.0
  0
LINE
  8
0
 62
     0
 10
185.131
 20
37.4812
 30
0.0
 11
198.832
 21
37.4812
 31
0.0
  0
LINE
  8
0
 62
     0
 10
198.832
 20
37.4812
 30
0.0
 11
198.832
 21
38.082
 31
0.0
  0
LINE
  8
0
 62
     0
 10
198.832
 20
38.082
 30
0.0
 11
199.632
 21
38.082
 31
0.0
  0
LINE
  8
0
 62
     0
 10
199.632
 20
38.082
 30
0.0
 11
199.632
 21
50.5823
 31
0.0
  0
LINE
  8
0
 62
     0
 10
199.632
 20
50.5823
 30
0.0
 11
198.832
 21
50.5823
 31
0.0
  0
LINE
  8
0
 62
     0
 10
198.832
 20
50.5823
 30
0.0
 11
198.832
 21
51.1803
 31
0.0
  0
LINE
  8
0
 62
     0
 10
198.832
 20
51.1803
 30
0.0
 11
185.131
 21
51.1803
 31
0.0
  0
LINE
  8
0
 62
     0
 10
204.181
 20
51.1803
 30
0.0
 11
204.181
 21
50.5823
 31
0.0
  0
LINE
  8
0
 62
     0
 10
204.181
 20
50.5823
 30
0.0
 11
203.382
 21
50.5823
 31
0.0
  0
LINE
  8
0
 62
     0
 10
203.382
 20
50.5823
 30
0.0
 11
203.382
 21
38.082
 31
0.0
  0
LINE
  8
0
 62
     0
 10
203.382
 20
38.082
 30
0.0
 11
204.181
 21
38.082
 31
0.0
  0
LINE
  8
0
 62
     0
 10
204.181
 20
38.082
 30
0.0
 11
204.181
 21
37.4812
 31
0.0
  0
LINE
  8
0
 62
     0
 10
204.181
 20
37.4812
 30
0.0
 11
217.882
 21
37.4812
 31
0.0
  0
LINE
  8
0
 62
     0
 10
217.882
 20
37.4812
 30
0.0
 11
217.882
 21
38.082
 31
0.0
  0
LINE
  8
0
 62
     0
 10
217.882
 20
38.082
 30
0.0
 11
218.682
 21
38.082
 31
0.0
  0
LINE
  8
0
 62
     0
 10
218.682
 20
38.082
 30
0.0
 11
218.682
 21
50.5823
 31
0.0
  0
LINE
  8
0
 62
     0
 10
218.682
 20
50.5823
 30
0.0
 11
217.882
 21
50.5823
 31
0.0
  0
LINE
  8
0
 62
     0
 10
217.882
 20
50.5823
 30
0.0
 11
217.882
 21
51.1803
 31
0.0
  0
LINE
  8
0
 62
     0
 10
217.882
 20
51.1803
 30
0.0
 11
204.181
 21
51.1803
 31
0.0
  0
LINE
  8
0
 62
     0
 10
8.92006
 20
65.4692
 30
0.0
 11
8.92006
 21
64.8684
 31
0.0
  0
LINE
  8
0
 62
     0
 10
8.92006
 20
64.8684
 30
0.0
 11
8.11939
 21
64.8684
 31
0.0
  0
LINE
  8
0
 62
     0
 10
8.11939
 20
64.8684
 30
0.0
 11
8.11939
 21
52.3681
 31
0.0
  0
LINE
  8
0
 62
     0
 10
8.11939
 20
52.3681
 30
0.0
 11
8.92006
 21
52.3681
 31
0.0
  0
LINE
  8
0
 62
     0
 10
8.92006
 20
52.3681
 30
0.0
 11
8.92006
 21
51.7687
 31
0.0
  0
LINE
  8
0
 62
     0
 10
8.92006
 20
51.7687
 30
0.0
 11
22.6191
 21
51.7687
 31
0.0
  0
LINE
  8
0
 62
     0
 10
22.6191
 20
51.7687
 30
0.0
 11
22.6191
 21
52.3681
 31
0.0
  0
LINE
  8
0
 62
     0
 10
22.6191
 20
52.3681
 30
0.0
 11
23.4198
 21
52.3681
 31
0.0
  0
LINE
  8
0
 62
     0
 10
23.4198
 20
52.3681
 30
0.0
 11
23.4198
 21
64.8684
 31
0.0
  0
LINE
  8
0
 62
     0
 10
23.4198
 20
64.8684
 30
0.0
 11
22.6191
 21
64.8684
 31
0.0
  0
LINE
  8
0
 62
     0
 10
22.6191
 20
64.8684
 30
0.0
 11
22.6191
 21
65.4692
 31
0.0
  0
LINE
  8
0
 62
     0
 10
22.6191
 20
65.4692
 30
0.0
 11
8.92006
 21
65.4692
 31
0.0
  0
LINE
  8
0
 62
     0
 10
223.231
 20
65.4692
 30
0.0
 11
223.231
 21
64.8684
 31
0.0
  0
LINE
  8
0
 62
     0
 10
223.231
 20
64.8684
 30
0.0
 11
222.432
 21
64.8684
 31
0.0
  0
LINE
  8
0
 62
     0
 10
222.432
 20
64.8684
 30
0.0
 11
222.432
 21
52.3681
 31
0.0
  0
LINE
  8
0
 62
     0
 10
222.432
 20
52.3681
 30
0.0
 11
223.231
 21
52.3681
 31
0.0
  0
LINE
  8
0
 62
     0
 10
223.231
 20
52.3681
 30
0.0
 11
223.231
 21
51.7687
 31
0.0
  0
LINE
  8
0
 62
     0
 10
223.231
 20
51.7687
 30
0.0
 11
236.932
 21
51.7687
 31
0.0
  0
LINE
  8
0
 62
     0
 10
236.932
 20
51.7687
 30
0.0
 11
236.932
 21
52.3681
 31
0.0
  0
LINE
  8
0
 62
     0
 10
236.932
 20
52.3681
 30
0.0
 11
237.732
 21
52.3681
 31
0.0
  0
LINE
  8
0
 62
     0
 10
237.732
 20
52.3681
 30
0.0
 11
237.732
 21
64.8684
 31
0.0
  0
LINE
  8
0
 62
     0
 10
237.732
 20
64.8684
 30
0.0
 11
236.932
 21
64.8684
 31
0.0
  0
LINE
  8
0
 62
     0
 10
236.932
 20
64.8684
 30
0.0
 11
236.932
 21
65.4692
 31
0.0
  0
LINE
  8
0
 62
     0
 10
236.932
 20
65.4692
 30
0.0
 11
223.231
 21
65.4692
 31
0.0
  0
LINE
  8
0
 62
     0
 10
27.9701
 20
70.2303
 30
0.0
 11
27.9701
 21
69.6309
 31
0.0
  0
LINE
  8
0
 62
     0
 10
27.9701
 20
69.6309
 30
0.0
 11
27.1694
 21
69.6309
 31
0.0
  0
LINE
  8
0
 62
     0
 10
27.1694
 20
69.6309
 30
0.0
 11
27.1694
 21
57.1306
 31
0.0
  0
LINE
  8
0
 62
     0
 10
27.1694
 20
57.1306
 30
0.0
 11
27.9701
 21
57.1306
 31
0.0
  0
LINE
  8
0
 62
     0
 10
27.9701
 20
57.1306
 30
0.0
 11
27.9701
 21
56.5312
 31
0.0
  0
LINE
  8
0
 62
     0
 10
27.9701
 20
56.5312
 30
0.0
 11
41.6691
 21
56.5312
 31
0.0
  0
LINE
  8
0
 62
     0
 10
41.6691
 20
56.5312
 30
0.0
 11
41.6691
 21
57.1306
 31
0.0
  0
LINE
  8
0
 62
     0
 10
41.6691
 20
57.1306
 30
0.0
 11
42.4699
 21
57.1306
 31
0.0
  0
LINE
  8
0
 62
     0
 10
42.4699
 20
57.1306
 30
0.0
 11
42.4699
 21
69.6309
 31
0.0
  0
LINE
  8
0
 62
     0
 10
42.4699
 20
69.6309
 30
0.0
 11
41.6691
 21
69.6309
 31
0.0
  0
LINE
  8
0
 62
     0
 10
41.6691
 20
69.6309
 30
0.0
 11
41.6691
 21
70.2303
 31
0.0
  0
LINE
  8
0
 62
     0
 10
41.6691
 20
70.2303
 30
0.0
 11
27.9701
 21
70.2303
 31
0.0
  0
LINE
  8
0
 62
     0
 10
47.02
 20
70.2303
 30
0.0
 11
47.02
 21
69.6309
 31
0.0
  0
LINE
  8
0
 62
     0
 10
47.02
 20
69.6309
 30
0.0
 11
46.2195
 21
69.6309
 31
0.0
  0
LINE
  8
0
 62
     0
 10
46.2195
 20
69.6309
 30
0.0
 11
46.2195
 21
57.1306
 31
0.0
  0
LINE
  8
0
 62
     0
 10
46.2195
 20
57.1306
 30
0.0
 11
47.02
 21
57.1306
 31
0.0
  0
LINE
  8
0
 62
     0
 10
47.02
 20
57.1306
 30
0.0
 11
47.02
 21
56.5312
 31
0.0
  0
LINE
  8
0
 62
     0
 10
47.02
 20
56.5312
 30
0.0
 11
60.7191
 21
56.5312
 31
0.0
  0
LINE
  8
0
 62
     0
 10
60.7191
 20
56.5312
 30
0.0
 11
60.7191
 21
57.1306
 31
0.0
  0
LINE
  8
0
 62
     0
 10
60.7191
 20
57.1306
 30
0.0
 11
61.5199
 21
57.1306
 31
0.0
  0
LINE
  8
0
 62
     0
 10
61.5199
 20
57.1306
 30
0.0
 11
61.5199
 21
69.6309
 31
0.0
  0
LINE
  8
0
 62
     0
 10
61.5199
 20
69.6309
 30
0.0
 11
60.7191
 21
69.6309
 31
0.0
  0
LINE
  8
0
 62
     0
 10
60.7191
 20
69.6309
 30
0.0
 11
60.7191
 21
70.2303
 31
0.0
  0
LINE
  8
0
 62
     0
 10
60.7191
 20
70.2303
 30
0.0
 11
47.02
 21
70.2303
 31
0.0
  0
LINE
  8
0
 62
     0
 10
66.07
 20
70.2303
 30
0.0
 11
66.07
 21
69.6309
 31
0.0
  0
LINE
  8
0
 62
     0
 10
66.07
 20
69.6309
 30
0.0
 11
65.2695
 21
69.6309
 31
0.0
  0
LINE
  8
0
 62
     0
 10
65.2695
 20
69.6309
 30
0.0
 11
65.2695
 21
57.1306
 31
0.0
  0
LINE
  8
0
 62
     0
 10
65.2695
 20
57.1306
 30
0.0
 11
66.07
 21
57.1306
 31
0.0
  0
LINE
  8
0
 62
     0
 10
66.07
 20
57.1306
 30
0.0
 11
66.07
 21
56.5312
 31
0.0
  0
LINE
  8
0
 62
     0
 10
66.07
 20
56.5312
 30
0.0
 11
79.7691
 21
56.5312
 31
0.0
  0
LINE
  8
0
 62
     0
 10
79.7691
 20
56.5312
 30
0.0
 11
79.7691
 21
57.1306
 31
0.0
  0
LINE
  8
0
 62
     0
 10
79.7691
 20
57.1306
 30
0.0
 11
80.5699
 21
57.1306
 31
0.0
  0
LINE
  8
0
 62
     0
 10
80.5699
 20
57.1306
 30
0.0
 11
80.5699
 21
69.6309
 31
0.0
  0
LINE
  8
0
 62
     0
 10
80.5699
 20
69.6309
 30
0.0
 11
79.7691
 21
69.6309
 31
0.0
  0
LINE
  8
0
 62
     0
 10
79.7691
 20
69.6309
 30
0.0
 11
79.7691
 21
70.2303
 31
0.0
  0
LINE
  8
0
 62
     0
 10
79.7691
 20
70.2303
 30
0.0
 11
66.07
 21
70.2303
 31
0.0
  0
LINE
  8
0
 62
     0
 10
166.081
 20
70.2303
 30
0.0
 11
166.081
 21
69.6309
 31
0.0
  0
LINE
  8
0
 62
     0
 10
166.081
 20
69.6309
 30
0.0
 11
165.282
 21
69.6309
 31
0.0
  0
LINE
  8
0
 62
     0
 10
165.282
 20
69.6309
 30
0.0
 11
165.282
 21
57.1306
 31
0.0
  0
LINE
  8
0
 62
     0
 10
165.282
 20
57.1306
 30
0.0
 11
166.081
 21
57.1306
 31
0.0
  0
LINE
  8
0
 62
     0
 10
166.081
 20
57.1306
 30
0.0
 11
166.081
 21
56.5312
 31
0.0
  0
LINE
  8
0
 62
     0
 10
166.081
 20
56.5312
 30
0.0
 11
179.782
 21
56.5312
 31
0.0
  0
LINE
  8
0
 62
     0
 10
179.782
 20
56.5312
 30
0.0
 11
179.782
 21
57.1306
 31
0.0
  0
LINE
  8
0
 62
     0
 10
179.782
 20
57.1306
 30
0.0
 11
180.582
 21
57.1306
 31
0.0
  0
LINE
  8
0
 62
     0
 10
180.582
 20
57.1306
 30
0.0
 11
180.582
 21
69.6309
 31
0.0
  0
LINE
  8
0
 62
     0
 10
180.582
 20
69.6309
 30
0.0
 11
179.782
 21
69.6309
 31
0.0
  0
LINE
  8
0
 62
     0
 10
179.782
 20
69.6309
 30
0.0
 11
179.782
 21
70.2303
 31
0.0
  0
LINE
  8
0
 62
     0
 10
179.782
 20
70.2303
 30
0.0
 11
166.081
 21
70.2303
 31
0.0
  0
LINE
  8
0
 62
     0
 10
185.131
 20
70.2303
 30
0.0
 11
185.131
 21
69.6309
 31
0.0
  0
LINE
  8
0
 62
     0
 10
185.131
 20
69.6309
 30
0.0
 11
184.332
 21
69.6309
 31
0.0
  0
LINE
  8
0
 62
     0
 10
184.332
 20
69.6309
 30
0.0
 11
184.332
 21
57.1306
 31
0.0
  0
LINE
  8
0
 62
     0
 10
184.332
 20
57.1306
 30
0.0
 11
185.131
 21
57.1306
 31
0.0
  0
LINE
  8
0
 62
     0
 10
185.131
 20
57.1306
 30
0.0
 11
185.131
 21
56.5312
 31
0.0
  0
LINE
  8
0
 62
     0
 10
185.131
 20
56.5312
 30
0.0
 11
198.832
 21
56.5312
 31
0.0
  0
LINE
  8
0
 62
     0
 10
198.832
 20
56.5312
 30
0.0
 11
198.832
 21
57.1306
 31
0.0
  0
LINE
  8
0
 62
     0
 10
198.832
 20
57.1306
 30
0.0
 11
199.632
 21
57.1306
 31
0.0
  0
LINE
  8
0
 62
     0
 10
199.632
 20
57.1306
 30
0.0
 11
199.632
 21
69.6309
 31
0.0
  0
LINE
  8
0
 62
     0
 10
199.632
 20
69.6309
 30
0.0
 11
198.832
 21
69.6309
 31
0.0
  0
LINE
  8
0
 62
     0
 10
198.832
 20
69.6309
 30
0.0
 11
198.832
 21
70.2303
 31
0.0
  0
LINE
  8
0
 62
     0
 10
198.832
 20
70.2303
 30
0.0
 11
185.131
 21
70.2303
 31
0.0
  0
LINE
  8
0
 62
     0
 10
204.181
 20
70.2303
 30
0.0
 11
204.181
 21
69.6309
 31
0.0
  0
LINE
  8
0
 62
     0
 10
204.181
 20
69.6309
 30
0.0
 11
203.382
 21
69.6309
 31
0.0
  0
LINE
  8
0
 62
     0
 10
203.382
 20
69.6309
 30
0.0
 11
203.382
 21
57.1306
 31
0.0
  0
LINE
  8
0
 62
     0
 10
203.382
 20
57.1306
 30
0.0
 11
204.181
 21
57.1306
 31
0.0
  0
LINE
  8
0
 62
     0
 10
204.181
 20
57.1306
 30
0.0
 11
204.181
 21
56.5312
 31
0.0
  0
LINE
  8
0
 62
     0
 10
204.181
 20
56.5312
 30
0.0
 11
217.882
 21
56.5312
 31
0.0
  0
LINE
  8
0
 62
     0
 10
217.882
 20
56.5312
 30
0.0
 11
217.882
 21
57.1306
 31
0.0
  0
LINE
  8
0
 62
     0
 10
217.882
 20
57.1306
 30
0.0
 11
218.682
 21
57.1306
 31
0.0
  0
LINE
  8
0
 62
     0
 10
218.682
 20
57.1306
 30
0.0
 11
218.682
 21
69.6309
 31
0.0
  0
LINE
  8
0
 62
     0
 10
218.682
 20
69.6309
 30
0.0
 11
217.882
 21
69.6309
 31
0.0
  0
LINE
  8
0
 62
     0
 10
217.882
 20
69.6309
 30
0.0
 11
217.882
 21
70.2303
 31
0.0
  0
LINE
  8
0
 62
     0
 10
217.882
 20
70.2303
 30
0.0
 11
204.181
 21
70.2303
 31
0.0
  0
LINE
  8
0
 62
     0
 10
8.92006
 20
84.5192
 30
0.0
 11
8.92006
 21
83.9184
 31
0.0
  0
LINE
  8
0
 62
     0
 10
8.92006
 20
83.9184
 30
0.0
 11
8.11939
 21
83.9184
 31
0.0
  0
LINE
  8
0
 62
     0
 10
8.11939
 20
83.9184
 30
0.0
 11
8.11939
 21
71.4181
 31
0.0
  0
LINE
  8
0
 62
     0
 10
8.11939
 20
71.4181
 30
0.0
 11
8.92006
 21
71.4181
 31
0.0
  0
LINE
  8
0
 62
     0
 10
8.92006
 20
71.4181
 30
0.0
 11
8.92006
 21
70.8187
 31
0.0
  0
LINE
  8
0
 62
     0
 10
8.92006
 20
70.8187
 30
0.0
 11
22.6191
 21
70.8187
 31
0.0
  0
LINE
  8
0
 62
     0
 10
22.6191
 20
70.8187
 30
0.0
 11
22.6191
 21
71.4181
 31
0.0
  0
LINE
  8
0
 62
     0
 10
22.6191
 20
71.4181
 30
0.0
 11
23.4198
 21
71.4181
 31
0.0
  0
LINE
  8
0
 62
     0
 10
23.4198
 20
71.4181
 30
0.0
 11
23.4198
 21
83.9184
 31
0.0
  0
LINE
  8
0
 62
     0
 10
23.4198
 20
83.9184
 30
0.0
 11
22.6191
 21
83.9184
 31
0.0
  0
LINE
  8
0
 62
     0
 10
22.6191
 20
83.9184
 30
0.0
 11
22.6191
 21
84.5192
 31
0.0
  0
LINE
  8
0
 62
     0
 10
22.6191
 20
84.5192
 30
0.0
 11
8.92006
 21
84.5192
 31
0.0
  0
LINE
  8
0
 62
     0
 10
223.231
 20
84.5192
 30
0.0
 11
223.231
 21
83.9184
 31
0.0
  0
LINE
  8
0
 62
     0
 10
223.231
 20
83.9184
 30
0.0
 11
222.432
 21
83.9184
 31
0.0
  0
LINE
  8
0
 62
     0
 10
222.432
 20
83.9184
 30
0.0
 11
222.432
 21
71.4181
 31
0.0
  0
LINE
  8
0
 62
     0
 10
222.432
 20
71.4181
 30
0.0
 11
223.231
 21
71.4181
 31
0.0
  0
LINE
  8
0
 62
     0
 10
223.231
 20
71.4181
 30
0.0
 11
223.231
 21
70.8187
 31
0.0
  0
LINE
  8
0
 62
     0
 10
223.231
 20
70.8187
 30
0.0
 11
236.932
 21
70.8187
 31
0.0
  0
LINE
  8
0
 62
     0
 10
236.932
 20
70.8187
 30
0.0
 11
236.932
 21
71.4181
 31
0.0
  0
LINE
  8
0
 62
     0
 10
236.932
 20
71.4181
 30
0.0
 11
237.732
 21
71.4181
 31
0.0
  0
LINE
  8
0
 62
     0
 10
237.732
 20
71.4181
 30
0.0
 11
237.732
 21
83.9184
 31
0.0
  0
LINE
  8
0
 62
     0
 10
237.732
 20
83.9184
 30
0.0
 11
236.932
 21
83.9184
 31
0.0
  0
LINE
  8
0
 62
     0
 10
236.932
 20
83.9184
 30
0.0
 11
236.932
 21
84.5192
 31
0.0
  0
LINE
  8
0
 62
     0
 10
236.932
 20
84.5192
 30
0.0
 11
223.231
 21
84.5192
 31
0.0
  0
LINE
  8
0
 62
     0
 10
27.9701
 20
89.2803
 30
0.0
 11
27.9701
 21
88.6809
 31
0.0
  0
LINE
  8
0
 62
     0
 10
27.9701
 20
88.6809
 30
0.0
 11
27.1694
 21
88.6809
 31
0.0
  0
LINE
  8
0
 62
     0
 10
27.1694
 20
88.6809
 30
0.0
 11
27.1694
 21
76.1806
 31
0.0
  0
LINE
  8
0
 62
     0
 10
27.1694
 20
76.1806
 30
0.0
 11
27.9701
 21
76.1806
 31
0.0
  0
LINE
  8
0
 62
     0
 10
27.9701
 20
76.1806
 30
0.0
 11
27.9701
 21
75.5812
 31
0.0
  0
LINE
  8
0
 62
     0
 10
27.9701
 20
75.5812
 30
0.0
 11
41.6691
 21
75.5812
 31
0.0
  0
LINE
  8
0
 62
     0
 10
41.6691
 20
75.5812
 30
0.0
 11
41.6691
 21
76.1806
 31
0.0
  0
LINE
  8
0
 62
     0
 10
41.6691
 20
76.1806
 30
0.0
 11
42.4699
 21
76.1806
 31
0.0
  0
LINE
  8
0
 62
     0
 10
42.4699
 20
76.1806
 30
0.0
 11
42.4699
 21
88.6809
 31
0.0
  0
LINE
  8
0
 62
     0
 10
42.4699
 20
88.6809
 30
0.0
 11
41.6691
 21
88.6809
 31
0.0
  0
LINE
  8
0
 62
     0
 10
41.6691
 20
88.6809
 30
0.0
 11
41.6691
 21
89.2803
 31
0.0
  0
LINE
  8
0
 62
     0
 10
41.6691
 20
89.2803
 30
0.0
 11
27.9701
 21
89.2803
 31
0.0
  0
LINE
  8
0
 62
     0
 10
47.02
 20
89.2803
 30
0.0
 11
47.02
 21
88.6809
 31
0.0
  0
LINE
  8
0
 62
     0
 10
47.02
 20
88.6809
 30
0.0
 11
46.2195
 21
88.6809
 31
0.0
  0
LINE
  8
0
 62
     0
 10
46.2195
 20
88.6809
 30
0.0
 11
46.2195
 21
76.1806
 31
0.0
  0
LINE
  8
0
 62
     0
 10
46.2195
 20
76.1806
 30
0.0
 11
47.02
 21
76.1806
 31
0.0
  0
LINE
  8
0
 62
     0
 10
47.02
 20
76.1806
 30
0.0
 11
47.02
 21
75.5812
 31
0.0
  0
LINE
  8
0
 62
     0
 10
47.02
 20
75.5812
 30
0.0
 11
60.7191
 21
75.5812
 31
0.0
  0
LINE
  8
0
 62
     0
 10
60.7191
 20
75.5812
 30
0.0
 11
60.7191
 21
76.1806
 31
0.0
  0
LINE
  8
0
 62
     0
 10
60.7191
 20
76.1806
 30
0.0
 11
61.5199
 21
76.1806
 31
0.0
  0
LINE
  8
0
 62
     0
 10
61.5199
 20
76.1806
 30
0.0
 11
61.5199
 21
88.6809
 31
0.0
  0
LINE
  8
0
 62
     0
 10
61.5199
 20
88.6809
 30
0.0
 11
60.7191
 21
88.6809
 31
0.0
  0
LINE
  8
0
 62
     0
 10
60.7191
 20
88.6809
 30
0.0
 11
60.7191
 21
89.2803
 31
0.0
  0
LINE
  8
0
 62
     0
 10
60.7191
 20
89.2803
 30
0.0
 11
47.02
 21
89.2803
 31
0.0
  0
LINE
  8
0
 62
     0
 10
66.07
 20
89.2803
 30
0.0
 11
66.07
 21
88.6809
 31
0.0
  0
LINE
  8
0
 62
     0
 10
66.07
 20
88.6809
 30
0.0
 11
65.2695
 21
88.6809
 31
0.0
  0
LINE
  8
0
 62
     0
 10
65.2695
 20
88.6809
 30
0.0
 11
65.2695
 21
76.1806
 31
0.0
  0
LINE
  8
0
 62
     0
 10
65.2695
 20
76.1806
 30
0.0
 11
66.07
 21
76.1806
 31
0.0
  0
LINE
  8
0
 62
     0
 10
66.07
 20
76.1806
 30
0.0
 11
66.07
 21
75.5812
 31
0.0
  0
LINE
  8
0
 62
     0
 10
66.07
 20
75.5812
 30
0.0
 11
79.7691
 21
75.5812
 31
0.0
  0
LINE
  8
0
 62
     0
 10
79.7691
 20
75.5812
 30
0.0
 11
79.7691
 21
76.1806
 31
0.0
  0
LINE
  8
0
 62
     0
 10
79.7691
 20
76.1806
 30
0.0
 11
80.5699
 21
76.1806
 31
0.0
  0
LINE
  8
0
 62
     0
 10
80.5699
 20
76.1806
 30
0.0
 11
80.5699
 21
88.6809
 31
0.0
  0
LINE
  8
0
 62
     0
 10
80.5699
 20
88.6809
 30
0.0
 11
79.7691
 21
88.6809
 31
0.0
  0
LINE
  8
0
 62
     0
 10
79.7691
 20
88.6809
 30
0.0
 11
79.7691
 21
89.2803
 31
0.0
  0
LINE
  8
0
 62
     0
 10
79.7691
 20
89.2803
 30
0.0
 11
66.07
 21
89.2803
 31
0.0
  0
LINE
  8
0
 62
     0
 10
147.031
 20
89.2803
 30
0.0
 11
147.031
 21
88.6809
 31
0.0
  0
LINE
  8
0
 62
     0
 10
147.031
 20
88.6809
 30
0.0
 11
146.232
 21
88.6809
 31
0.0
  0
LINE
  8
0
 62
     0
 10
146.232
 20
88.6809
 30
0.0
 11
146.232
 21
76.1806
 31
0.0
  0
LINE
  8
0
 62
     0
 10
146.232
 20
76.1806
 30
0.0
 11
147.031
 21
76.1806
 31
0.0
  0
LINE
  8
0
 62
     0
 10
147.031
 20
76.1806
 30
0.0
 11
147.031
 21
75.5812
 31
0.0
  0
LINE
  8
0
 62
     0
 10
147.031
 20
75.5812
 30
0.0
 11
160.732
 21
75.5812
 31
0.0
  0
LINE
  8
0
 62
     0
 10
160.732
 20
75.5812
 30
0.0
 11
160.732
 21
76.1806
 31
0.0
  0
LINE
  8
0
 62
     0
 10
160.732
 20
76.1806
 30
0.0
 11
161.532
 21
76.1806
 31
0.0
  0
LINE
  8
0
 62
     0
 10
161.532
 20
76.1806
 30
0.0
 11
161.532
 21
88.6809
 31
0.0
  0
LINE
  8
0
 62
     0
 10
161.532
 20
88.6809
 30
0.0
 11
160.732
 21
88.6809
 31
0.0
  0
LINE
  8
0
 62
     0
 10
160.732
 20
88.6809
 30
0.0
 11
160.732
 21
89.2803
 31
0.0
  0
LINE
  8
0
 62
     0
 10
160.732
 20
89.2803
 30
0.0
 11
147.031
 21
89.2803
 31
0.0
  0
LINE
  8
0
 62
     0
 10
166.081
 20
89.2803
 30
0.0
 11
166.081
 21
88.6809
 31
0.0
  0
LINE
  8
0
 62
     0
 10
166.081
 20
88.6809
 30
0.0
 11
165.282
 21
88.6809
 31
0.0
  0
LINE
  8
0
 62
     0
 10
165.282
 20
88.6809
 30
0.0
 11
165.282
 21
76.1806
 31
0.0
  0
LINE
  8
0
 62
     0
 10
165.282
 20
76.1806
 30
0.0
 11
166.081
 21
76.1806
 31
0.0
  0
LINE
  8
0
 62
     0
 10
166.081
 20
76.1806
 30
0.0
 11
166.081
 21
75.5812
 31
0.0
  0
LINE
  8
0
 62
     0
 10
166.081
 20
75.5812
 30
0.0
 11
179.782
 21
75.5812
 31
0.0
  0
LINE
  8
0
 62
     0
 10
179.782
 20
75.5812
 30
0.0
 11
179.782
 21
76.1806
 31
0.0
  0
LINE
  8
0
 62
     0
 10
179.782
 20
76.1806
 30
0.0
 11
180.582
 21
76.1806
 31
0.0
  0
LINE
  8
0
 62
     0
 10
180.582
 20
76.1806
 30
0.0
 11
180.582
 21
88.6809
 31
0.0
  0
LINE
  8
0
 62
     0
 10
180.582
 20
88.6809
 30
0.0
 11
179.782
 21
88.6809
 31
0.0
  0
LINE
  8
0
 62
     0
 10
179.782
 20
88.6809
 30
0.0
 11
179.782
 21
89.2803
 31
0.0
  0
LINE
  8
0
 62
     0
 10
179.782
 20
89.2803
 30
0.0
 11
166.081
 21
89.2803
 31
0.0
  0
LINE
  8
0
 62
     0
 10
185.131
 20
89.2803
 30
0.0
 11
185.131
 21
88.6809
 31
0.0
  0
LINE
  8
0
 62
     0
 10
185.131
 20
88.6809
 30
0.0
 11
184.332
 21
88.6809
 31
0.0
  0
LINE
  8
0
 62
     0
 10
184.332
 20
88.6809
 30
0.0
 11
184.332
 21
76.1806
 31
0.0
  0
LINE
  8
0
 62
     0
 10
184.332
 20
76.1806
 30
0.0
 11
185.131
 21
76.1806
 31
0.0
  0
LINE
  8
0
 62
     0
 10
185.131
 20
76.1806
 30
0.0
 11
185.131
 21
75.5812
 31
0.0
  0
LINE
  8
0
 62
     0
 10
185.131
 20
75.5812
 30
0.0
 11
198.832
 21
75.5812
 31
0.0
  0
LINE
  8
0
 62
     0
 10
198.832
 20
75.5812
 30
0.0
 11
198.832
 21
76.1806
 31
0.0
  0
LINE
  8
0
 62
     0
 10
198.832
 20
76.1806
 30
0.0
 11
199.632
 21
76.1806
 31
0.0
  0
LINE
  8
0
 62
     0
 10
199.632
 20
76.1806
 30
0.0
 11
199.632
 21
88.6809
 31
0.0
  0
LINE
  8
0
 62
     0
 10
199.632
 20
88.6809
 30
0.0
 11
198.832
 21
88.6809
 31
0.0
  0
LINE
  8
0
 62
     0
 10
198.832
 20
88.6809
 30
0.0
 11
198.832
 21
89.2803
 31
0.0
  0
LINE
  8
0
 62
     0
 10
198.832
 20
89.2803
 30
0.0
 11
185.131
 21
89.2803
 31
0.0
  0
LINE
  8
0
 62
     0
 10
204.181
 20
89.2803
 30
0.0
 11
204.181
 21
88.6809
 31
0.0
  0
LINE
  8
0
 62
     0
 10
204.181
 20
88.6809
 30
0.0
 11
203.382
 21
88.6809
 31
0.0
  0
LINE
  8
0
 62
     0
 10
203.382
 20
88.6809
 30
0.0
 11
203.382
 21
76.1806
 31
0.0
  0
LINE
  8
0
 62
     0
 10
203.382
 20
76.1806
 30
0.0
 11
204.181
 21
76.1806
 31
0.0
  0
LINE
  8
0
 62
     0
 10
204.181
 20
76.1806
 30
0.0
 11
204.181
 21
75.5812
 31
0.0
  0
LINE
  8
0
 62
     0
 10
204.181
 20
75.5812
 30
0.0
 11
217.882
 21
75.5812
 31
0.0
  0
LINE
  8
0
 62
     0
 10
217.882
 20
75.5812
 30
0.0
 11
217.882
 21
76.1806
 31
0.0
  0
LINE
  8
0
 62
     0
 10
217.882
 20
76.1806
 30
0.0
 11
218.682
 21
76.1806
 31
0.0
  0
LINE
  8
0
 62
     0
 10
218.682
 20
76.1806
 30
0.0
 11
218.682
 21
88.6809
 31
0.0
  0
LINE
  8
0
 62
     0
 10
218.682
 20
88.6809
 30
0.0
 11
217.882
 21
88.6809
 31
0.0
  0
LINE
  8
0
 62
     0
 10
217.882
 20
88.6809
 30
0.0
 11
217.882
 21
89.2803
 31
0.0
  0
LINE
  8
0
 62
     0
 10
217.882
 20
89.2803
 30
0.0
 11
204.181
 21
89.2803
 31
0.0
  0
LINE
  8
0
 62
     0
 10
223.231
 20
103.569
 30
0.0
 11
223.231
 21
102.968
 31
0.0
  0
LINE
  8
0
 62
     0
 10
223.231
 20
102.968
 30
0.0
 11
222.432
 21
102.968
 31
0.0
  0
LINE
  8
0
 62
     0
 10
222.432
 20
102.968
 30
0.0
 11
222.432
 21
90.4681
 31
0.0
  0
LINE
  8
0
 62
     0
 10
222.432
 20
90.4681
 30
0.0
 11
223.231
 21
90.4681
 31
0.0
  0
LINE
  8
0
 62
     0
 10
223.231
 20
90.4681
 30
0.0
 11
223.231
 21
89.8687
 31
0.0
  0
LINE
  8
0
 62
     0
 10
223.231
 20
89.8687
 30
0.0
 11
236.932
 21
89.8687
 31
0.0
  0
LINE
  8
0
 62
     0
 10
236.932
 20
89.8687
 30
0.0
 11
236.932
 21
90.4681
 31
0.0
  0
LINE
  8
0
 62
     0
 10
236.932
 20
90.4681
 30
0.0
 11
237.732
 21
90.4681
 31
0.0
  0
LINE
  8
0
 62
     0
 10
237.732
 20
90.4681
 30
0.0
 11
237.732
 21
102.968
 31
0.0
  0
LINE
  8
0
 62
     0
 10
237.732
 20
102.968
 30
0.0
 11
236.932
 21
102.968
 31
0.0
  0
LINE
  8
0
 62
     0
 10
236.932
 20
102.968
 30
0.0
 11
236.932
 21
103.569
 31
0.0
  0
LINE
  8
0
 62
     0
 10
236.932
 20
103.569
 30
0.0
 11
223.231
 21
103.569
 31
0.0
  0
LINE
  8
0
 62
     0
 10
27.9701
 20
108.33
 30
0.0
 11
27.9701
 21
107.731
 31
0.0
  0
LINE
  8
0
 62
     0
 10
27.9701
 20
107.731
 30
0.0
 11
27.1694
 21
107.731
 31
0.0
  0
LINE
  8
0
 62
     0
 10
27.1694
 20
107.731
 30
0.0
 11
27.1694
 21
95.2306
 31
0.0
  0
LINE
  8
0
 62
     0
 10
27.1694
 20
95.2306
 30
0.0
 11
27.9701
 21
95.2306
 31
0.0
  0
LINE
  8
0
 62
     0
 10
27.9701
 20
95.2306
 30
0.0
 11
27.9701
 21
94.6312
 31
0.0
  0
LINE
  8
0
 62
     0
 10
27.9701
 20
94.6312
 30
0.0
 11
41.6691
 21
94.6312
 31
0.0
  0
LINE
  8
0
 62
     0
 10
41.6691
 20
94.6312
 30
0.0
 11
41.6691
 21
95.2306
 31
0.0
  0
LINE
  8
0
 62
     0
 10
41.6691
 20
95.2306
 30
0.0
 11
42.4699
 21
95.2306
 31
0.0
  0
LINE
  8
0
 62
     0
 10
42.4699
 20
95.2306
 30
0.0
 11
42.4699
 21
107.731
 31
0.0
  0
LINE
  8
0
 62
     0
 10
42.4699
 20
107.731
 30
0.0
 11
41.6691
 21
107.731
 31
0.0
  0
LINE
  8
0
 62
     0
 10
41.6691
 20
107.731
 30
0.0
 11
41.6691
 21
108.33
 31
0.0
  0
LINE
  8
0
 62
     0
 10
41.6691
 20
108.33
 30
0.0
 11
27.9701
 21
108.33
 31
0.0
  0
LINE
  8
0
 62
     0
 10
47.02
 20
108.33
 30
0.0
 11
47.02
 21
107.731
 31
0.0
  0
LINE
  8
0
 62
     0
 10
47.02
 20
107.731
 30
0.0
 11
46.2195
 21
107.731
 31
0.0
  0
LINE
  8
0
 62
     0
 10
46.2195
 20
107.731
 30
0.0
 11
46.2195
 21
95.2306
 31
0.0
  0
LINE
  8
0
 62
     0
 10
46.2195
 20
95.2306
 30
0.0
 11
47.02
 21
95.2306
 31
0.0
  0
LINE
  8
0
 62
     0
 10
47.02
 20
95.2306
 30
0.0
 11
47.02
 21
94.6312
 31
0.0
  0
LINE
  8
0
 62
     0
 10
47.02
 20
94.6312
 30
0.0
 11
60.7191
 21
94.6312
 31
0.0
  0
LINE
  8
0
 62
     0
 10
60.7191
 20
94.6312
 30
0.0
 11
60.7191
 21
95.2306
 31
0.0
  0
LINE
  8
0
 62
     0
 10
60.7191
 20
95.2306
 30
0.0
 11
61.5199
 21
95.2306
 31
0.0
  0
LINE
  8
0
 62
     0
 10
61.5199
 20
95.2306
 30
0.0
 11
61.5199
 21
107.731
 31
0.0
  0
LINE
  8
0
 62
     0
 10
61.5199
 20
107.731
 30
0.0
 11
60.7191
 21
107.731
 31
0.0
  0
LINE
  8
0
 62
     0
 10
60.7191
 20
107.731
 30
0.0
 11
60.7191
 21
108.33
 31
0.0
  0
LINE
  8
0
 62
     0
 10
60.7191
 20
108.33
 30
0.0
 11
47.02
 21
108.33
 31
0.0
  0
LINE
  8
0
 62
     0
 10
66.07
 20
108.33
 30
0.0
 11
66.07
 21
107.731
 31
0.0
  0
LINE
  8
0
 62
     0
 10
66.07
 20
107.731
 30
0.0
 11
65.2695
 21
107.731
 31
0.0
  0
LINE
  8
0
 62
     0
 10
65.2695
 20
107.731
 30
0.0
 11
65.2695
 21
95.2306
 31
0.0
  0
LINE
  8
0
 62
     0
 10
65.2695
 20
95.2306
 30
0.0
 11
66.07
 21
95.2306
 31
0.0
  0
LINE
  8
0
 62
     0
 10
66.07
 20
95.2306
 30
0.0
 11
66.07
 21
94.6312
 31
0.0
  0
LINE
  8
0
 62
     0
 10
66.07
 20
94.6312
 30
0.0
 11
79.7691
 21
94.6312
 31
0.0
  0
LINE
  8
0
 62
     0
 10
79.7691
 20
94.6312
 30
0.0
 11
79.7691
 21
95.2306
 31
0.0
  0
LINE
  8
0
 62
     0
 10
79.7691
 20
95.2306
 30
0.0
 11
80.5699
 21
95.2306
 31
0.0
  0
LINE
  8
0
 62
     0
 10
80.5699
 20
95.2306
 30
0.0
 11
80.5699
 21
107.731
 31
0.0
  0
LINE
  8
0
 62
     0
 10
80.5699
 20
107.731
 30
0.0
 11
79.7691
 21
107.731
 31
0.0
  0
LINE
  8
0
 62
     0
 10
79.7691
 20
107.731
 30
0.0
 11
79.7691
 21
108.33
 31
0.0
  0
LINE
  8
0
 62
     0
 10
79.7691
 20
108.33
 30
0.0
 11
66.07
 21
108.33
 31
0.0
  0
LINE
  8
0
 62
     0
 10
147.031
 20
108.33
 30
0.0
 11
147.031
 21
107.731
 31
0.0
  0
LINE
  8
0
 62
     0
 10
147.031
 20
107.731
 30
0.0
 11
146.232
 21
107.731
 31
0.0
  0
LINE
  8
0
 62
     0
 10
146.232
 20
107.731
 30
0.0
 11
146.232
 21
95.2306
 31
0.0
  0
LINE
  8
0
 62
     0
 10
146.232
 20
95.2306
 30
0.0
 11
147.031
 21
95.2306
 31
0.0
  0
LINE
  8
0
 62
     0
 10
147.031
 20
95.2306
 30
0.0
 11
147.031
 21
94.6312
 31
0.0
  0
LINE
  8
0
 62
     0
 10
147.031
 20
94.6312
 30
0.0
 11
160.732
 21
94.6312
 31
0.0
  0
LINE
  8
0
 62
     0
 10
160.732
 20
94.6312
 30
0.0
 11
160.732
 21
95.2306
 31
0.0
  0
LINE
  8
0
 62
     0
 10
160.732
 20
95.2306
 30
0.0
 11
161.532
 21
95.2306
 31
0.0
  0
LINE
  8
0
 62
     0
 10
161.532
 20
95.2306
 30
0.0
 11
161.532
 21
107.731
 31
0.0
  0
LINE
  8
0
 62
     0
 10
161.532
 20
107.731
 30
0.0
 11
160.732
 21
107.731
 31
0.0
  0
LINE
  8
0
 62
     0
 10
160.732
 20
107.731
 30
0.0
 11
160.732
 21
108.33
 31
0.0
  0
LINE
  8
0
 62
     0
 10
160.732
 20
108.33
 30
0.0
 11
147.031
 21
108.33
 31
0.0
  0
LINE
  8
0
 62
     0
 10
166.081
 20
108.33
 30
0.0
 11
166.081
 21
107.731
 31
0.0
  0
LINE
  8
0
 62
     0
 10
166.081
 20
107.731
 30
0.0
 11
165.282
 21
107.731
 31
0.0
  0
LINE
  8
0
 62
     0
 10
165.282
 20
107.731
 30
0.0
 11
165.282
 21
95.2306
 31
0.0
  0
LINE
  8
0
 62
     0
 10
165.282
 20
95.2306
 30
0.0
 11
166.081
 21
95.2306
 31
0.0
  0
LINE
  8
0
 62
     0
 10
166.081
 20
95.2306
 30
0.0
 11
166.081
 21
94.6312
 31
0.0
  0
LINE
  8
0
 62
     0
 10
166.081
 20
94.6312
 30
0.0
 11
179.782
 21
94.6312
 31
0.0
  0
LINE
  8
0
 62
     0
 10
179.782
 20
94.6312
 30
0.0
 11
179.782
 21
95.2306
 31
0.0
  0
LINE
  8
0
 62
     0
 10
179.782
 20
95.2306
 30
0.0
 11
180.582
 21
95.2306
 31
0.0
  0
LINE
  8
0
 62
     0
 10
180.582
 20
95.2306
 30
0.0
 11
180.582
 21
107.731
 31
0.0
  0
LINE
  8
0
 62
     0
 10
180.582
 20
107.731
 30
0.0
 11
179.782
 21
107.731
 31
0.0
  0
LINE
  8
0
 62
     0
 10
179.782
 20
107.731
 30
0.0
 11
179.782
 21
108.33
 31
0.0
  0
LINE
  8
0
 62
     0
 10
179.782
 20
108.33
 30
0.0
 11
166.081
 21
108.33
 31
0.0
  0
LINE
  8
0
 62
     0
 10
185.131
 20
108.33
 30
0.0
 11
185.131
 21
107.731
 31
0.0
  0
LINE
  8
0
 62
     0
 10
185.131
 20
107.731
 30
0.0
 11
184.332
 21
107.731
 31
0.0
  0
LINE
  8
0
 62
     0
 10
184.332
 20
107.731
 30
0.0
 11
184.332
 21
95.2306
 31
0.0
  0
LINE
  8
0
 62
     0
 10
184.332
 20
95.2306
 30
0.0
 11
185.131
 21
95.2306
 31
0.0
  0
LINE
  8
0
 62
     0
 10
185.131
 20
95.2306
 30
0.0
 11
185.131
 21
94.6312
 31
0.0
  0
LINE
  8
0
 62
     0
 10
185.131
 20
94.6312
 30
0.0
 11
198.832
 21
94.6312
 31
0.0
  0
LINE
  8
0
 62
     0
 10
198.832
 20
94.6312
 30
0.0
 11
198.832
 21
95.2306
 31
0.0
  0
LINE
  8
0
 62
     0
 10
198.832
 20
95.2306
 30
0.0
 11
199.632
 21
95.2306
 31
0.0
  0
LINE
  8
0
 62
     0
 10
199.632
 20
95.2306
 30
0.0
 11
199.632
 21
107.731
 31
0.0
  0
LINE
  8
0
 62
     0
 10
199.632
 20
107.731
 30
0.0
 11
198.832
 21
107.731
 31
0.0
  0
LINE
  8
0
 62
     0
 10
198.832
 20
107.731
 30
0.0
 11
198.832
 21
108.33
 31
0.0
  0
LINE
  8
0
 62
     0
 10
198.832
 20
108.33
 30
0.0
 11
185.131
 21
108.33
 31
0.0
  0
LINE
  8
0
 62
     0
 10
204.181
 20
108.33
 30
0.0
 11
204.181
 21
107.731
 31
0.0
  0
LINE
  8
0
 62
     0
 10
204.181
 20
107.731
 30
0.0
 11
203.382
 21
107.731
 31
0.0
  0
LINE
  8
0
 62
     0
 10
203.382
 20
107.731
 30
0.0
 11
203.382
 21
95.2306
 31
0.0
  0
LINE
  8
0
 62
     0
 10
203.382
 20
95.2306
 30
0.0
 11
204.181
 21
95.2306
 31
0.0
  0
LINE
  8
0
 62
     0
 10
204.181
 20
95.2306
 30
0.0
 11
204.181
 21
94.6312
 31
0.0
  0
LINE
  8
0
 62
     0
 10
204.181
 20
94.6312
 30
0.0
 11
217.882
 21
94.6312
 31
0.0
  0
LINE
  8
0
 62
     0
 10
217.882
 20
94.6312
 30
0.0
 11
217.882
 21
95.2306
 31
0.0
  0
LINE
  8
0
 62
     0
 10
217.882
 20
95.2306
 30
0.0
 11
218.682
 21
95.2306
 31
0.0
  0
LINE
  8
0
 62
     0
 10
218.682
 20
95.2306
 30
0.0
 11
218.682
 21
107.731
 31
0.0
  0
LINE
  8
0
 62
     0
 10
218.682
 20
107.731
 30
0.0
 11
217.882
 21
107.731
 31
0.0
  0
LINE
  8
0
 62
     0
 10
217.882
 20
107.731
 30
0.0
 11
217.882
 21
108.33
 31
0.0
  0
LINE
  8
0
 62
     0
 10
217.882
 20
108.33
 30
0.0
 11
204.181
 21
108.33
 31
0.0
  0
LINE
  8
0
 62
     0
 10
82.5253
 20
115.553
 30
0.0
 11
82.2194
 21
115.395
 31
0.0
  0
LINE
  8
0
 62
     0
 10
82.2194
 20
115.395
 30
0.0
 11
81.9753
 21
115.153
 31
0.0
  0
LINE
  8
0
 62
     0
 10
81.9753
 20
115.153
 30
0.0
 11
81.8197
 21
114.846
 31
0.0
  0
LINE
  8
0
 62
     0
 10
81.8197
 20
114.846
 30
0.0
 11
81.7658
 21
114.505
 31
0.0
  0
LINE
  8
0
 62
     0
 10
81.7658
 20
114.505
 30
0.0
 11
81.8197
 21
114.166
 31
0.0
  0
LINE
  8
0
 62
     0
 10
81.8197
 20
114.166
 30
0.0
 11
81.9753
 21
113.859
 31
0.0
  0
LINE
  8
0
 62
     0
 10
81.9753
 20
113.859
 30
0.0
 11
82.2194
 21
113.617
 31
0.0
  0
LINE
  8
0
 62
     0
 10
82.2194
 20
113.617
 30
0.0
 11
82.5253
 21
113.459
 31
0.0
  0
LINE
  8
0
 62
     0
 10
82.5253
 20
113.459
 30
0.0
 11
82.8657
 21
113.406
 31
0.0
  0
LINE
  8
0
 62
     0
 10
82.8657
 20
113.406
 30
0.0
 11
83.2058
 21
113.459
 31
0.0
  0
LINE
  8
0
 62
     0
 10
83.2058
 20
113.459
 30
0.0
 11
83.512
 21
113.617
 31
0.0
  0
LINE
  8
0
 62
     0
 10
83.512
 20
113.617
 30
0.0
 11
83.7558
 21
113.859
 31
0.0
  0
LINE
  8
0
 62
     0
 10
83.7558
 20
113.859
 30
0.0
 11
83.9114
 21
114.166
 31
0.0
  0
LINE
  8
0
 62
     0
 10
83.9114
 20
114.166
 30
0.0
 11
83.9653
 21
114.505
 31
0.0
  0
LINE
  8
0
 62
     0
 10
83.9653
 20
114.505
 30
0.0
 11
83.9114
 21
114.846
 31
0.0
  0
LINE
  8
0
 62
     0
 10
83.9114
 20
114.846
 30
0.0
 11
83.7558
 21
115.153
 31
0.0
  0
LINE
  8
0
 62
     0
 10
83.7558
 20
115.153
 30
0.0
 11
83.512
 21
115.395
 31
0.0
  0
LINE
  8
0
 62
     0
 10
83.512
 20
115.395
 30
0.0
 11
83.2058
 21
115.553
 31
0.0
  0
LINE
  8
0
 62
     0
 10
83.2058
 20
115.553
 30
0.0
 11
82.8657
 21
115.605
 31
0.0
  0
LINE
  8
0
 62
     0
 10
82.8657
 20
115.605
 30
0.0
 11
82.5253
 21
115.553
 31
0.0
  0
LINE
  8
0
 62
     0
 10
162.647
 20
115.553
 30
0.0
 11
162.34
 21
115.395
 31
0.0
  0
LINE
  8
0
 62
     0
 10
162.34
 20
115.395
 30
0.0
 11
162.097
 21
115.153
 31
0.0
  0
LINE
  8
0
 62
     0
 10
162.097
 20
115.153
 30
0.0
 11
161.94
 21
114.846
 31
0.0
  0
LINE
  8
0
 62
     0
 10
161.94
 20
114.846
 30
0.0
 11
161.887
 21
114.505
 31
0.0
  0
LINE
  8
0
 62
     0
 10
161.887
 20
114.505
 30
0.0
 11
161.94
 21
114.166
 31
0.0
  0
LINE
  8
0
 62
     0
 10
161.94
 20
114.166
 30
0.0
 11
162.097
 21
113.859
 31
0.0
  0
LINE
  8
0
 62
     0
 10
162.097
 20
113.859
 30
0.0
 11
162.34
 21
113.617
 31
0.0
  0
LINE
  8
0
 62
     0
 10
162.34
 20
113.617
 30
0.0
 11
162.647
 21
113.459
 31
0.0
  0
LINE
  8
0
 62
     0
 10
162.647
 20
113.459
 30
0.0
 11
162.986
 21
113.406
 31
0.0
  0
LINE
  8
0
 62
     0
 10
162.986
 20
113.406
 30
0.0
 11
163.327
 21
113.459
 31
0.0
  0
LINE
  8
0
 62
     0
 10
163.327
 20
113.459
 30
0.0
 11
163.632
 21
113.617
 31
0.0
  0
LINE
  8
0
 62
     0
 10
163.632
 20
113.617
 30
0.0
 11
163.876
 21
113.859
 31
0.0
  0
LINE
  8
0
 62
     0
 10
163.876
 20
113.859
 30
0.0
 11
164.034
 21
114.166
 31
0.0
  0
LINE
  8
0
 62
     0
 10
164.034
 20
114.166
 30
0.0
 11
164.087
 21
114.505
 31
0.0
  0
LINE
  8
0
 62
     0
 10
164.087
 20
114.505
 30
0.0
 11
164.034
 21
114.846
 31
0.0
  0
LINE
  8
0
 62
     0
 10
164.034
 20
114.846
 30
0.0
 11
163.876
 21
115.153
 31
0.0
  0
LINE
  8
0
 62
     0
 10
163.876
 20
115.153
 30
0.0
 11
163.632
 21
115.395
 31
0.0
  0
LINE
  8
0
 62
     0
 10
163.632
 20
115.395
 30
0.0
 11
163.327
 21
115.553
 31
0.0
  0
LINE
  8
0
 62
     0
 10
163.327
 20
115.553
 30
0.0
 11
162.986
 21
115.605
 31
0.0
  0
LINE
  8
0
 62
     0
 10
162.986
 20
115.605
 30
0.0
 11
162.647
 21
115.553
 31
0.0
  0
LINE
  8
0
 62
     0
 10
242.768
 20
115.553
 30
0.0
 11
242.46
 21
115.395
 31
0.0
  0
LINE
  8
0
 62
     0
 10
242.46
 20
115.395
 30
0.0
 11
242.218
 21
115.153
 31
0.0
  0
LINE
  8
0
 62
     0
 10
242.218
 20
115.153
 30
0.0
 11
242.062
 21
114.846
 31
0.0
  0
LINE
  8
0
 62
     0
 10
242.062
 20
114.846
 30
0.0
 11
242.008
 21
114.505
 31
0.0
  0
LINE
  8
0
 62
     0
 10
242.008
 20
114.505
 30
0.0
 11
242.062
 21
114.166
 31
0.0
  0
LINE
  8
0
 62
     0
 10
242.062
 20
114.166
 30
0.0
 11
242.218
 21
113.859
 31
0.0
  0
LINE
  8
0
 62
     0
 10
242.218
 20
113.859
 30
0.0
 11
242.46
 21
113.617
 31
0.0
  0
LINE
  8
0
 62
     0
 10
242.46
 20
113.617
 30
0.0
 11
242.768
 21
113.459
 31
0.0
  0
LINE
  8
0
 62
     0
 10
242.768
 20
113.459
 30
0.0
 11
243.108
 21
113.406
 31
0.0
  0
LINE
  8
0
 62
     0
 10
243.108
 20
113.406
 30
0.0
 11
243.448
 21
113.459
 31
0.0
  0
LINE
  8
0
 62
     0
 10
243.448
 20
113.459
 30
0.0
 11
243.754
 21
113.617
 31
0.0
  0
LINE
  8
0
 62
     0
 10
243.754
 20
113.617
 30
0.0
 11
243.998
 21
113.859
 31
0.0
  0
LINE
  8
0
 62
     0
 10
243.998
 20
113.859
 30
0.0
 11
244.154
 21
114.166
 31
0.0
  0
LINE
  8
0
 62
     0
 10
244.154
 20
114.166
 30
0.0
 11
244.208
 21
114.505
 31
0.0
  0
LINE
  8
0
 62
     0
 10
244.208
 20
114.505
 30
0.0
 11
244.154
 21
114.846
 31
0.0
  0
LINE
  8
0
 62
     0
 10
244.154
 20
114.846
 30
0.0
 11
243.998
 21
115.153
 31
0.0
  0
LINE
  8
0
 62
     0
 10
243.998
 20
115.153
 30
0.0
 11
243.754
 21
115.395
 31
0.0
  0
LINE
  8
0
 62
     0
 10
243.754
 20
115.395
 30
0.0
 11
243.448
 21
115.553
 31
0.0
  0
LINE
  8
0
 62
     0
 10
243.448
 20
115.553
 30
0.0
 11
243.108
 21
115.605
 31
0.0
  0
LINE
  8
0
 62
     0
 10
243.108
 20
115.605
 30
0.0
 11
242.768
 21
115.553
 31
0.0
  0
LINE
  8
0
 62
     0
 10
2.40468
 20
115.553
 30
0.0
 11
2.09737
 21
115.395
 31
0.0
  0
LINE
  8
0
 62
     0
 10
2.09737
 20
115.395
 30
0.0
 11
1.85484
 21
115.153
 31
0.0
  0
LINE
  8
0
 62
     0
 10
1.85484
 20
115.153
 30
0.0
 11
1.69774
 21
114.846
 31
0.0
  0
LINE
  8
0
 62
     0
 10
1.69774
 20
114.846
 30
0.0
 11
1.64538
 21
114.505
 31
0.0
  0
LINE
  8
0
 62
     0
 10
1.64538
 20
114.505
 30
0.0
 11
1.69774
 21
114.166
 31
0.0
  0
LINE
  8
0
 62
     0
 10
1.69774
 20
114.166
 30
0.0
 11
1.85484
 21
113.859
 31
0.0
  0
LINE
  8
0
 62
     0
 10
1.85484
 20
113.859
 30
0.0
 11
2.09737
 21
113.617
 31
0.0
  0
LINE
  8
0
 62
     0
 10
2.09737
 20
113.617
 30
0.0
 11
2.40468
 21
113.459
 31
0.0
  0
LINE
  8
0
 62
     0
 10
2.40468
 20
113.459
 30
0.0
 11
2.74505
 21
113.406
 31
0.0
  0
LINE
  8
0
 62
     0
 10
2.74505
 20
113.406
 30
0.0
 11
3.08405
 21
113.459
 31
0.0
  0
LINE
  8
0
 62
     0
 10
3.08405
 20
113.459
 30
0.0
 11
3.39135
 21
113.617
 31
0.0
  0
LINE
  8
0
 62
     0
 10
3.39135
 20
113.617
 30
0.0
 11
3.63389
 21
113.859
 31
0.0
  0
LINE
  8
0
 62
     0
 10
3.63389
 20
113.859
 30
0.0
 11
3.79099
 21
114.166
 31
0.0
  0
LINE
  8
0
 62
     0
 10
3.79099
 20
114.166
 30
0.0
 11
3.84471
 21
114.505
 31
0.0
  0
LINE
  8
0
 62
     0
 10
3.84471
 20
114.505
 30
0.0
 11
3.79099
 21
114.846
 31
0.0
  0
LINE
  8
0
 62
     0
 10
3.79099
 20
114.846
 30
0.0
 11
3.63389
 21
115.153
 31
0.0
  0
LINE
  8
0
 62
     0
 10
3.63389
 20
115.153
 30
0.0
 11
3.39135
 21
115.395
 31
0.0
  0
LINE
  8
0
 62
     0
 10
3.39135
 20
115.395
 30
0.0
 11
3.08405
 21
115.553
 31
0.0
  0
LINE
  8
0
 62
     0
 10
3.08405
 20
115.553
 30
0.0
 11
2.74505
 21
115.605
 31
0.0
  0
LINE
  8
0
 62
     0
 10
2.74505
 20
115.605
 30
0.0
 11
2.40468
 21
115.553
 31
0.0
  0
ENDSEC
  0
EOF
