<?xml version="1.0"?>
<!-- Generated by SVGo -->
<svg width="255.664mm" height="127.077mm"
     viewBox="0.000 0.000 255.664 127.077"
     xmlns="http://www.w3.org/2000/svg" 
     xmlns:xlink="http://www.w3.org/1999/xlink">
<polygon points="247.664,5.001 247.899,5.010 248.133,5.037 248.364,5.083 248.591,5.147 248.812,5.229 249.026,5.327 249.231,5.443 249.427,5.573 249.612,5.719 249.785,5.879 249.945,6.052 250.091,6.237 250.222,6.433 250.337,6.639 250.436,6.852 250.517,7.073 250.581,7.300 250.627,7.531 250.655,7.765 250.664,8.001 250.664,119.077 250.655,119.312 250.627,119.546 250.581,119.777 250.517,120.004 250.436,120.225 250.337,120.438 250.222,120.644 250.091,120.840 249.945,121.025 249.785,121.198 249.612,121.358 249.427,121.504 249.231,121.634 249.026,121.750 248.812,121.848 248.591,121.930 248.364,121.994 248.133,122.040 247.899,122.067 247.664,122.077 8.001,122.077 7.765,122.067 7.531,122.040 7.300,121.994 7.073,121.930 6.852,121.848 6.639,121.750 6.433,121.634 6.237,121.504 6.052,121.358 5.879,121.198 5.719,121.025 5.573,120.840 5.443,120.644 5.327,120.438 5.229,120.225 5.147,120.004 5.083,119.777 5.037,119.546 5.010,119.312 5.000,119.077 5.001,8.001 5.010,7.765 5.037,7.531 5.083,7.300 5.147,7.073 5.229,6.852 5.327,6.639 5.443,6.433 5.573,6.237 5.719,6.052 5.879,5.879 6.052,5.719 6.237,5.573 6.433,5.443 6.639,5.327 6.852,5.229 7.073,5.147 7.300,5.083 7.531,5.037 7.765,5.010 8.001,5.000" style="fill:none;stroke-width:0.050000mm;stroke:black"/>
<polygon points="247.674,118.380 247.367,118.537 247.124,118.780 246.968,119.087 246.914,119.427 246.968,119.766 247.124,120.073 247.367,120.316 247.674,120.473 248.014,120.527 248.354,120.473 248.661,120.316 248.904,120.073 249.060,119.766 249.114,119.427 249.060,119.087 248.904,118.780 248.661,118.537 248.354,118.380 248.014,118.327" style="fill:none;stroke-width:0.050000mm;stroke:black"/>
<polygon points="167.553,118.380 167.246,118.537 167.003,118.780 166.847,119.087 166.793,119.427 166.847,119.766 167.003,120.073 167.246,120.316 167.553,120.473 167.893,120.527 168.233,120.473 168.539,120.316 168.783,120.073 168.939,119.766 168.993,119.427 168.939,119.087 168.783,118.780 168.539,118.537 168.233,118.380 167.893,118.327" style="fill:none;stroke-width:0.050000mm;stroke:black"/>
<polygon points="87.432,118.380 87.125,118.537 86.882,118.780 86.726,119.087 86.672,119.427 86.726,119.766 86.882,120.073 87.125,120.316 87.432,120.473 87.772,120.527 88.112,120.473 88.418,120.316 88.662,120.073 88.818,119.766 88.872,119.427 88.818,119.087 88.662,118.780 88.418,118.537 88.112,118.380 87.772,118.327" style="fill:none;stroke-width:0.050000mm;stroke:black"/>
<polygon points="7.311,118.380 7.004,118.537 6.761,118.780 6.604,119.087 6.551,119.427 6.604,119.766 6.761,120.073 7.004,120.316 7.311,120.473 7.651,120.527 7.990,120.473 8.297,120.316 8.540,120.073 8.697,119.766 8.751,119.427 8.697,119.087 8.540,118.780 8.297,118.537 7.990,118.380 7.651,118.327" style="fill:none;stroke-width:0.050000mm;stroke:black"/>
<polygon points="99.551,99.551 99.551,100.151 98.751,100.151 98.751,112.651 99.551,112.651 99.551,113.251 113.251,113.251 113.251,112.651 114.051,112.651 114.051,100.151 113.251,100.151 113.251,99.551" style="fill:none;stroke-width:0.050000mm;stroke:black"/>
<polygon points="137.651,99.551 137.651,100.151 136.851,100.151 136.851,112.651 137.651,112.651 137.651,113.251 151.351,113.251 151.351,112.651 152.151,112.651 152.151,100.151 151.351,100.151 151.351,99.551" style="fill:none;stroke-width:0.050000mm;stroke:black"/>
<polygon points="32.876,90.026 32.876,90.626 32.076,90.626 32.076,103.126 32.876,103.126 32.876,103.726 46.576,103.726 46.576,103.126 47.376,103.126 47.376,90.626 46.576,90.626 46.576,90.026" style="fill:none;stroke-width:0.050000mm;stroke:black"/>
<polygon points="51.926,90.026 51.926,90.626 51.126,90.626 51.126,103.126 51.926,103.126 51.926,103.726 65.626,103.726 65.626,103.126 66.426,103.126 66.426,90.626 65.626,90.626 65.626,90.026" style="fill:none;stroke-width:0.050000mm;stroke:black"/>
<polygon points="70.976,90.026 70.976,90.626 70.176,90.626 70.176,103.126 70.976,103.126 70.976,103.726 84.676,103.726 84.676,103.126 85.476,103.126 85.476,90.626 84.676,90.626 84.676,90.026" style="fill:none;stroke-width:0.050000mm;stroke:black"/>
<polygon points="170.988,90.026 170.988,90.626 170.188,90.626 170.188,103.126 170.988,103.126 170.988,103.726 184.688,103.726 184.688,103.126 185.488,103.126 185.488,90.626 184.688,90.626 184.688,90.026" style="fill:none;stroke-width:0.050000mm;stroke:black"/>
<polygon points="190.038,90.026 190.038,90.626 189.238,90.626 189.238,103.126 190.038,103.126 190.038,103.726 203.738,103.726 203.738,103.126 204.538,103.126 204.538,90.626 203.738,90.626 203.738,90.026" style="fill:none;stroke-width:0.050000mm;stroke:black"/>
<polygon points="209.088,90.026 209.088,90.626 208.288,90.626 208.288,103.126 209.088,103.126 209.088,103.726 222.788,103.726 222.788,103.126 223.588,103.126 223.588,90.626 222.788,90.626 222.788,90.026" style="fill:none;stroke-width:0.050000mm;stroke:black"/>
<polygon points="13.826,75.738 13.826,76.338 13.026,76.338 13.026,88.838 13.826,88.838 13.826,89.438 27.526,89.438 27.526,88.838 28.326,88.838 28.326,76.338 27.526,76.338 27.526,75.738" style="fill:none;stroke-width:0.050000mm;stroke:black"/>
<polygon points="228.138,75.738 228.138,76.338 227.338,76.338 227.338,88.838 228.138,88.838 228.138,89.438 241.838,89.438 241.838,88.838 242.638,88.838 242.638,76.338 241.838,76.338 241.838,75.738" style="fill:none;stroke-width:0.050000mm;stroke:black"/>
<polygon points="32.876,70.976 32.876,71.575 32.076,71.575 32.076,84.075 32.876,84.075 32.876,84.675 46.576,84.675 46.576,84.075 47.376,84.075 47.376,71.575 46.576,71.575 46.576,70.976" style="fill:none;stroke-width:0.050000mm;stroke:black"/>
<polygon points="51.926,70.976 51.926,71.575 51.126,71.575 51.126,84.075 51.926,84.075 51.926,84.675 65.626,84.675 65.626,84.075 66.426,84.075 66.426,71.575 65.626,71.575 65.626,70.976" style="fill:none;stroke-width:0.050000mm;stroke:black"/>
<polygon points="70.976,70.976 70.976,71.575 70.176,71.575 70.176,84.075 70.976,84.075 70.976,84.675 84.676,84.675 84.676,84.075 85.476,84.075 85.476,71.575 84.676,71.575 84.676,70.976" style="fill:none;stroke-width:0.050000mm;stroke:black"/>
<polygon points="170.988,70.976 170.988,71.575 170.188,71.575 170.188,84.075 170.988,84.075 170.988,84.675 184.688,84.675 184.688,84.075 185.488,84.075 185.488,71.575 184.688,71.575 184.688,70.976" style="fill:none;stroke-width:0.050000mm;stroke:black"/>
<polygon points="190.038,70.976 190.038,71.575 189.238,71.575 189.238,84.075 190.038,84.075 190.038,84.675 203.738,84.675 203.738,84.075 204.538,84.075 204.538,71.575 203.738,71.575 203.738,70.976" style="fill:none;stroke-width:0.050000mm;stroke:black"/>
<polygon points="209.088,70.976 209.088,71.575 208.288,71.575 208.288,84.075 209.088,84.075 209.088,84.675 222.788,84.675 222.788,84.075 223.588,84.075 223.588,71.575 222.788,71.575 222.788,70.976" style="fill:none;stroke-width:0.050000mm;stroke:black"/>
<polygon points="13.826,56.688 13.826,57.288 13.026,57.288 13.026,69.788 13.826,69.788 13.826,70.388 27.526,70.388 27.526,69.788 28.326,69.788 28.326,57.288 27.526,57.288 27.526,56.688" style="fill:none;stroke-width:0.050000mm;stroke:black"/>
<polygon points="228.138,56.688 228.138,57.288 227.338,57.288 227.338,69.788 228.138,69.788 228.138,70.388 241.838,70.388 241.838,69.788 242.638,69.788 242.638,57.288 241.838,57.288 241.838,56.688" style="fill:none;stroke-width:0.050000mm;stroke:black"/>
<polygon points="32.876,51.926 32.876,52.526 32.076,52.526 32.076,65.026 32.876,65.026 32.876,65.626 46.576,65.626 46.576,65.026 47.376,65.026 47.376,52.526 46.576,52.526 46.576,51.926" style="fill:none;stroke-width:0.050000mm;stroke:black"/>
<polygon points="51.926,51.926 51.926,52.526 51.126,52.526 51.126,65.026 51.926,65.026 51.926,65.626 65.626,65.626 65.626,65.026 66.426,65.026 66.426,52.526 65.626,52.526 65.626,51.926" style="fill:none;stroke-width:0.050000mm;stroke:black"/>
<polygon points="70.976,51.926 70.976,52.526 70.176,52.526 70.176,65.026 70.976,65.026 70.976,65.626 84.676,65.626 84.676,65.026 85.476,65.026 85.476,52.526 84.676,52.526 84.676,51.926" style="fill:none;stroke-width:0.050000mm;stroke:black"/>
<polygon points="170.988,51.926 170.988,52.526 170.188,52.526 170.188,65.026 170.988,65.026 170.988,65.626 184.688,65.626 184.688,65.026 185.488,65.026 185.488,52.526 184.688,52.526 184.688,51.926" style="fill:none;stroke-width:0.050000mm;stroke:black"/>
<polygon points="190.038,51.926 190.038,52.526 189.238,52.526 189.238,65.026 190.038,65.026 190.038,65.626 203.738,65.626 203.738,65.026 204.538,65.026 204.538,52.526 203.738,52.526 203.738,51.926" style="fill:none;stroke-width:0.050000mm;stroke:black"/>
<polygon points="209.088,51.926 209.088,52.526 208.288,52.526 208.288,65.026 209.088,65.026 209.088,65.626 222.788,65.626 222.788,65.026 223.588,65.026 223.588,52.526 222.788,52.526 222.788,51.926" style="fill:none;stroke-width:0.050000mm;stroke:black"/>
<polygon points="13.826,37.638 13.826,38.238 13.026,38.238 13.026,50.738 13.826,50.738 13.826,51.338 27.526,51.338 27.526,50.738 28.326,50.738 28.326,38.238 27.526,38.238 27.526,37.638" style="fill:none;stroke-width:0.050000mm;stroke:black"/>
<polygon points="228.138,37.638 228.138,38.238 227.338,38.238 227.338,50.738 228.138,50.738 228.138,51.338 241.838,51.338 241.838,50.738 242.638,50.738 242.638,38.238 241.838,38.238 241.838,37.638" style="fill:none;stroke-width:0.050000mm;stroke:black"/>
<polygon points="32.876,32.876 32.876,33.476 32.076,33.476 32.076,45.976 32.876,45.976 32.876,46.576 46.576,46.576 46.576,45.976 47.376,45.976 47.376,33.476 46.576,33.476 46.576,32.876" style="fill:none;stroke-width:0.050000mm;stroke:black"/>
<polygon points="51.926,32.876 51.926,33.476 51.126,33.476 51.126,45.976 51.926,45.976 51.926,46.576 65.626,46.576 65.626,45.976 66.426,45.976 66.426,33.476 65.626,33.476 65.626,32.876" style="fill:none;stroke-width:0.050000mm;stroke:black"/>
<polygon points="70.976,32.876 70.976,33.476 70.176,33.476 70.176,45.976 70.976,45.976 70.976,46.576 84.676,46.576 84.676,45.976 85.476,45.976 85.476,33.476 84.676,33.476 84.676,32.876" style="fill:none;stroke-width:0.050000mm;stroke:black"/>
<polygon points="151.938,32.876 151.938,33.476 151.138,33.476 151.138,45.976 151.938,45.976 151.938,46.576 165.638,46.576 165.638,45.976 166.438,45.976 166.438,33.476 165.638,33.476 165.638,32.876" style="fill:none;stroke-width:0.050000mm;stroke:black"/>
<polygon points="170.988,32.876 170.988,33.476 170.188,33.476 170.188,45.976 170.988,45.976 170.988,46.576 184.688,46.576 184.688,45.976 185.488,45.976 185.488,33.476 184.688,33.476 184.688,32.876" style="fill:none;stroke-width:0.050000mm;stroke:black"/>
<polygon points="190.038,32.876 190.038,33.476 189.238,33.476 189.238,45.976 190.038,45.976 190.038,46.576 203.738,46.576 203.738,45.976 204.538,45.976 204.538,33.476 203.738,33.476 203.738,32.876" style="fill:none;stroke-width:0.050000mm;stroke:black"/>
<polygon points="209.088,32.876 209.088,33.476 208.288,33.476 208.288,45.976 209.088,45.976 209.088,46.576 222.788,46.576 222.788,45.976 223.588,45.976 223.588,33.476 222.788,33.476 222.788,32.876" style="fill:none;stroke-width:0.050000mm;stroke:black"/>
<polygon points="228.138,18.588 228.138,19.188 227.338,19.188 227.338,31.688 228.138,31.688 228.138,32.288 241.838,32.288 241.838,31.688 242.638,31.688 242.638,19.188 241.838,19.188 241.838,18.588" style="fill:none;stroke-width:0.050000mm;stroke:black"/>
<polygon points="32.876,13.826 32.876,14.426 32.076,14.426 32.076,26.926 32.876,26.926 32.876,27.526 46.576,27.526 46.576,26.926 47.376,26.926 47.376,14.426 46.576,14.426 46.576,13.826" style="fill:none;stroke-width:0.050000mm;stroke:black"/>
<polygon points="51.926,13.826 51.926,14.426 51.126,14.426 51.126,26.926 51.926,26.926 51.926,27.526 65.626,27.526 65.626,26.926 66.426,26.926 66.426,14.426 65.626,14.426 65.626,13.826" style="fill:none;stroke-width:0.050000mm;stroke:black"/>
<polygon points="70.976,13.826 70.976,14.426 70.176,14.426 70.176,26.926 70.976,26.926 70.976,27.526 84.676,27.526 84.676,26.926 85.476,26.926 85.476,14.426 84.676,14.426 84.676,13.826" style="fill:none;stroke-width:0.050000mm;stroke:black"/>
<polygon points="151.938,13.826 151.938,14.426 151.138,14.426 151.138,26.926 151.938,26.926 151.938,27.526 165.638,27.526 165.638,26.926 166.438,26.926 166.438,14.426 165.638,14.426 165.638,13.826" style="fill:none;stroke-width:0.050000mm;stroke:black"/>
<polygon points="170.988,13.826 170.988,14.426 170.188,14.426 170.188,26.926 170.988,26.926 170.988,27.526 184.688,27.526 184.688,26.926 185.488,26.926 185.488,14.426 184.688,14.426 184.688,13.826" style="fill:none;stroke-width:0.050000mm;stroke:black"/>
<polygon points="190.038,13.826 190.038,14.426 189.238,14.426 189.238,26.926 190.038,26.926 190.038,27.526 203.738,27.526 203.738,26.926 204.538,26.926 204.538,14.426 203.738,14.426 203.738,13.826" style="fill:none;stroke-width:0.050000mm;stroke:black"/>
<polygon points="209.088,13.826 209.088,14.426 208.288,14.426 208.288,26.926 209.088,26.926 209.088,27.526 222.788,27.526 222.788,26.926 223.588,26.926 223.588,14.426 222.788,14.426 222.788,13.826" style="fill:none;stroke-width:0.050000mm;stroke:black"/>
<polygon points="87.432,6.604 87.125,6.761 86.882,7.004 86.726,7.311 86.672,7.651 86.726,7.990 86.882,8.297 87.125,8.540 87.432,8.697 87.772,8.751 88.112,8.697 88.418,8.540 88.662,8.297 88.818,7.990 88.872,7.651 88.818,7.311 88.662,7.004 88.418,6.761 88.112,6.604 87.772,6.551" style="fill:none;stroke-width:0.050000mm;stroke:black"/>
<polygon points="167.553,6.604 167.246,6.761 167.003,7.004 166.847,7.311 166.793,7.651 166.847,7.990 167.003,8.297 167.246,8.540 167.553,8.697 167.893,8.751 168.233,8.697 168.539,8.540 168.783,8.297 168.939,7.990 168.993,7.651 168.939,7.311 168.783,7.004 168.539,6.761 168.233,6.604 167.893,6.551" style="fill:none;stroke-width:0.050000mm;stroke:black"/>
<polygon points="247.674,6.604 247.367,6.761 247.124,7.004 246.968,7.311 246.914,7.651 246.968,7.990 247.124,8.297 247.367,8.540 247.674,8.697 248.014,8.751 248.354,8.697 248.661,8.540 248.904,8.297 249.060,7.990 249.114,7.651 249.060,7.311 248.904,7.004 248.661,6.761 248.354,6.604 248.014,6.551" style="fill:none;stroke-width:0.050000mm;stroke:black"/>
<polygon points="7.311,6.604 7.004,6.761 6.761,7.004 6.604,7.311 6.551,7.651 6.604,7.990 6.761,8.297 7.004,8.540 7.311,8.697 7.651,8.751 7.990,8.697 8.297,8.540 8.540,8.297 8.697,7.990 8.751,7.651 8.697,7.311 8.540,7.004 8.297,6.761 7.990,6.604 7.651,6.551" style="fill:none;stroke-width:0.050000mm;stroke:black"/>
</svg>
